<svg version="1.1" id="Layer_1" xmlns="http://www.w3.org/2000/svg" xmlns:xlink="http://www.w3.org/1999/xlink" x="0px" y="0px"
	 width="100%" viewBox="0 0 316 336" enable-background="new 0 0 316 336" xml:space="preserve">
<path fill="#010101" opacity="1.000000" stroke="none" 
	d="
M181.000000,337.000000 
	C120.666687,337.000000 60.833378,337.000000 1.000048,337.000000 
	C1.000032,225.000061 1.000032,113.000122 1.000016,1.000138 
	C106.333229,1.000092 211.666458,1.000092 316.999756,1.000046 
	C316.999847,112.999855 316.999847,224.999710 316.999939,336.999786 
	C271.833344,337.000000 226.666672,337.000000 181.000000,337.000000 
M280.404083,219.646820 
	C280.359253,218.762024 280.314392,217.877228 280.274933,216.303375 
	C280.402466,215.627548 280.530029,214.951736 281.262268,214.025284 
	C282.397522,212.244873 283.929382,210.598969 284.587921,208.656906 
	C286.098236,204.203201 287.039001,199.558807 288.480713,195.078644 
	C289.886993,190.708694 288.237427,187.979630 283.711761,187.118164 
	C281.203400,186.640686 278.837524,185.453781 276.372559,184.700912 
	C271.357513,183.169235 266.323151,181.700394 261.288635,180.233475 
	C257.116211,179.017715 252.893784,177.960358 248.762039,176.621338 
	C242.123413,174.469879 235.541336,172.143906 229.661606,169.476379 
	C250.009415,162.561752 270.357208,155.647110 290.705017,148.732468 
	C289.049896,144.852585 288.500366,142.208542 287.766602,139.616653 
	C286.574432,135.405777 285.458771,131.156433 283.948547,127.056786 
	C282.166168,122.218521 279.629852,117.636116 278.113373,112.728645 
	C276.877258,108.728363 274.861938,108.631454 271.818695,110.170395 
	C270.794830,110.688148 269.919678,111.604851 268.853027,111.916496 
	C260.404022,114.385056 251.914383,116.714256 243.460663,119.167068 
	C239.910629,120.197098 236.403931,121.382896 232.901123,122.567650 
	C227.258942,124.476013 221.636307,126.442207 215.604782,128.089218 
	C215.604782,128.089218 215.137421,127.919067 215.003845,127.322731 
	C214.904190,127.145065 214.804550,126.967392 214.979126,126.152161 
	C217.523743,122.537239 220.068344,118.922325 223.145264,115.194878 
	C223.513153,114.612976 223.881058,114.031082 224.637192,112.944519 
	C224.952164,112.391762 225.267136,111.838997 226.107330,111.159996 
	C226.489136,110.594521 226.870926,110.029037 227.641571,108.956787 
	C227.964859,108.406288 228.288147,107.855782 229.208374,107.169037 
	C229.850174,106.197151 230.491959,105.225258 231.391571,103.933876 
	C231.391571,103.933876 231.685333,103.647079 232.426956,103.751770 
	C233.192459,102.301247 233.957977,100.850731 234.999237,98.723122 
	C236.254929,96.955154 237.510635,95.187187 239.147888,93.465744 
	C239.400894,93.410210 239.650681,93.342796 240.420227,93.481369 
	C241.859634,90.798180 243.299057,88.114990 245.068130,84.808464 
	C245.215256,84.625175 245.362381,84.441879 246.202072,84.521866 
	C247.148880,83.362457 248.095688,82.203056 249.733566,80.829010 
	C253.238861,77.000137 252.734253,74.668907 247.874741,72.361633 
	C246.906479,72.073402 245.938232,71.785179 244.286423,71.255318 
	C241.853943,69.474106 239.421478,67.692894 236.875595,65.275551 
	C235.573547,64.176949 234.271500,63.078339 232.852875,61.441929 
	C232.187500,61.470753 231.522110,61.499577 230.197601,61.315266 
	C229.362625,60.567379 228.527634,59.819492 228.166840,58.773346 
	C227.450409,58.227409 226.733978,57.681469 225.525467,56.690788 
	C224.060028,55.752041 222.594589,54.813290 220.934265,53.414848 
	C220.309860,53.603760 219.685455,53.792671 218.991608,53.982887 
	C218.991608,53.982887 218.959808,54.044651 218.220993,54.063553 
	C217.318924,55.479244 216.416855,56.894936 215.292618,58.980854 
	C213.103302,61.952595 210.914001,64.924332 208.037323,67.912529 
	C204.712723,71.884155 201.208328,75.720795 198.103119,79.857117 
	C192.607834,87.177139 187.355331,94.679436 182.001236,102.105446 
	C180.892776,82.318604 180.922195,63.195015 180.874695,44.071617 
	C180.860596,38.398186 179.811966,37.323143 174.171600,37.264408 
	C165.023422,37.169132 155.873550,37.223408 146.724426,37.232468 
	C137.664749,37.241436 136.173660,38.627647 136.272110,47.576530 
	C136.475037,66.022400 136.794647,84.466995 136.358627,102.817162 
	C135.458755,101.498146 134.598434,100.150040 133.652939,98.864578 
	C123.296776,84.784584 112.776039,70.821732 102.662697,56.569687 
	C99.971046,52.776520 97.313576,52.902321 94.315582,55.048122 
	C86.552368,60.604614 78.922989,66.353310 71.348389,72.166283 
	C66.118484,76.179863 66.140755,76.671425 70.016594,82.124443 
	C76.320282,90.993256 82.527679,99.933350 88.983116,108.690475 
	C93.561920,114.901840 98.482506,120.861252 102.836418,127.395599 
	C102.218300,127.928810 101.600182,128.462021 100.388000,128.923950 
	C99.996208,128.849350 99.604408,128.774750 98.947884,128.085419 
	C96.626953,127.362572 94.306030,126.639725 91.192207,125.863968 
	C90.147377,125.699409 89.102554,125.534859 87.829834,124.827438 
	C86.218300,124.155540 84.606758,123.483643 82.200981,122.778610 
	C81.439346,122.928925 80.677719,123.079239 79.298203,123.029907 
	C78.869942,122.971558 78.441689,122.913208 78.204338,122.418869 
	C78.204338,122.418869 78.043976,121.970840 77.869843,121.255661 
	C72.372948,119.395256 66.876671,117.533020 61.373707,115.690735 
	C61.285229,115.661110 61.115017,115.875618 60.298367,115.908485 
	C59.618099,115.807442 58.937832,115.706390 57.976925,114.996483 
	C56.208275,112.392014 54.029301,111.190163 50.187935,112.895821 
	C49.418777,113.026489 48.649620,113.157150 47.289188,113.062218 
	C46.878788,112.967064 46.468384,112.871910 46.431728,112.483551 
	C46.431728,112.483551 46.503448,112.013954 46.652615,111.416473 
	C45.128319,110.738503 42.906227,109.096809 42.228271,109.587700 
	C40.908638,110.543205 40.454540,112.694084 39.480736,114.939468 
	C39.428783,115.546257 39.376831,116.153053 38.970589,117.416481 
	C36.727165,122.531197 34.403358,127.613556 32.319138,132.792343 
	C31.970127,133.659546 32.660015,134.944855 32.878250,136.620544 
	C33.050144,137.154480 33.222038,137.688400 33.181831,138.512100 
	C33.181831,138.512100 32.904270,138.739944 32.317898,138.804352 
	C28.870710,141.398453 28.811052,141.565445 30.271170,144.877853 
	C31.151670,146.413422 32.032173,147.948975 33.160053,150.125702 
	C34.936275,152.900604 37.401798,153.475723 40.905617,152.469025 
	C41.252762,152.509613 41.599907,152.550186 42.394913,153.163193 
	C47.358215,155.260147 52.269810,157.497253 57.319374,159.360413 
	C58.665115,159.856949 60.433449,159.208160 62.762936,159.068573 
	C63.503101,159.198059 64.243271,159.327560 65.053230,160.167969 
	C65.950539,163.150497 68.007919,163.159363 70.912903,162.288635 
	C71.273323,162.044907 71.633743,161.801193 72.700813,161.800949 
	C73.197021,161.817688 73.693237,161.834427 74.044548,162.311432 
	C74.044548,162.311432 74.254448,162.745834 74.318695,163.478638 
	C75.957703,166.786972 78.337410,166.599197 81.815514,164.878708 
	C82.802635,165.150787 83.789749,165.422867 84.770210,166.309845 
	C84.930748,168.174881 88.367851,169.815659 84.357582,171.982330 
	C79.467484,173.647903 74.601929,175.390182 69.682396,176.963715 
	C58.065937,180.679276 46.406025,184.259552 34.800777,188.009323 
	C30.170099,189.505539 28.843449,192.956329 30.789022,197.275406 
	C31.441875,198.724716 31.717968,200.343765 32.002857,202.681763 
	C34.442413,208.802094 36.881973,214.922409 39.370159,221.709137 
	C39.482014,222.366882 39.593868,223.024628 39.373863,224.365509 
	C39.358311,227.872467 41.250355,228.230865 44.668011,227.211349 
	C45.112144,227.196381 45.556282,227.181396 46.589149,227.548599 
	C49.125881,227.717163 51.941231,228.499435 53.174385,224.541718 
	C53.330044,224.466187 53.485699,224.390656 54.498524,224.565704 
	C59.091675,225.478333 62.673515,223.420151 66.595901,220.637589 
	C66.980530,220.580917 67.365166,220.524246 68.519218,220.746109 
	C70.683083,219.720428 72.846954,218.694763 75.582733,217.609299 
	C75.957787,217.530518 76.332848,217.451752 77.440567,217.721054 
	C79.601913,217.841537 82.219612,218.771347 82.331490,214.579041 
	C82.331490,214.579041 82.066788,214.188080 82.689552,214.098343 
	C83.082642,213.955521 83.475731,213.812683 84.577827,214.063049 
	C85.385208,214.091721 86.192596,214.120392 87.549843,214.530991 
	C89.817345,213.516922 92.084854,212.502838 94.902229,211.352676 
	C95.267960,211.258560 95.633682,211.164429 96.366371,211.404175 
	C96.901817,211.175476 97.437263,210.946762 98.733910,210.656738 
	C99.464798,210.438431 100.195679,210.220139 100.934807,210.874557 
	C99.722099,213.269485 98.797043,215.870972 97.249710,218.025589 
	C87.660637,231.378082 77.996002,244.677750 68.209877,257.886353 
	C65.297760,261.816925 67.362633,264.456635 70.188652,266.613464 
	C78.297905,272.802582 86.572449,278.777283 94.845306,284.748596 
	C97.509285,286.671417 100.186836,286.534607 102.271866,283.755310 
	C104.240761,281.130798 106.071808,278.401947 107.937088,275.700775 
	C112.700050,268.803375 117.213951,261.718201 122.271309,255.044510 
	C126.916290,248.914948 132.140472,243.224304 137.154816,238.359589 
	C137.156677,255.985931 137.156799,273.612274 137.161163,291.238617 
	C137.163132,299.152954 138.724731,300.682343 146.879745,300.696259 
	C155.692902,300.711334 164.506149,300.715698 173.319260,300.692871 
	C180.115082,300.675262 180.838333,299.975677 180.845825,293.326599 
	C180.865494,275.866516 180.818665,258.406281 180.906921,240.946625 
	C180.917358,238.883270 181.603836,236.823318 182.111206,235.498413 
	C182.189285,235.821381 182.179886,236.206070 182.357941,236.458496 
	C192.287231,250.534897 202.209412,264.616455 212.199677,278.649506 
	C213.725723,280.793091 215.362930,282.962433 217.364288,284.617249 
	C218.326263,285.412689 220.734085,285.730225 221.675156,285.083160 
	C230.853577,278.772461 239.912125,272.282349 248.878433,265.671906 
	C251.061203,264.062653 252.715210,261.829895 250.498154,258.896576 
	C241.336182,246.774689 232.106461,234.702545 223.084396,222.477249 
	C220.385147,218.819641 218.280319,214.723328 216.728928,210.941742 
	C224.051804,213.171432 231.387756,215.359299 238.693909,217.642532 
	C246.026825,219.934158 253.272339,222.527344 260.666473,224.593719 
	C265.646179,225.985397 270.817444,226.691727 276.487427,227.466705 
	C276.698547,226.769180 276.909698,226.071655 277.235199,224.765640 
	C277.345673,224.368103 277.456146,223.970581 278.185364,223.618454 
	C278.723145,222.751709 279.260925,221.884949 279.873566,220.443405 
	C279.880737,220.250290 279.887878,220.057175 280.404083,219.646820 
z"/>
<path fill="#E1315C" opacity="1.000000" stroke="none" 
	d="
M238.766327,93.419212 
	C237.510635,95.187187 236.254929,96.955154 234.598801,99.178497 
	C233.360687,100.971611 232.523010,102.309349 231.685333,103.647079 
	C231.685333,103.647079 231.391571,103.933876 230.910690,104.052002 
	C229.823685,105.215172 229.217545,106.260223 228.611420,107.305267 
	C228.288147,107.855782 227.964859,108.406288 227.121429,109.143967 
	C226.261551,109.982841 225.921829,110.634537 225.582108,111.286232 
	C225.267136,111.838997 224.952164,112.391762 224.112823,113.134117 
	C223.263275,113.984947 222.938126,114.646179 222.612976,115.307419 
	C220.068344,118.922325 217.523743,122.537239 214.622208,126.423378 
	C214.265289,126.694595 213.845840,126.862228 213.519379,126.963608 
	C212.505661,128.717178 211.818420,130.369370 210.869919,132.139771 
	C210.418350,132.276108 210.228043,132.294266 209.646423,132.303314 
	C207.790421,132.523758 206.263031,132.560928 204.871475,133.014679 
	C197.053299,135.563934 189.267838,138.213562 180.710480,141.084106 
	C180.411362,138.603470 180.008072,136.577026 179.949768,134.540710 
	C179.731277,126.908775 179.625534,119.273598 179.456360,111.227600 
	C179.650436,109.723839 179.865646,108.632118 180.400604,107.492325 
	C181.296021,107.158340 182.085388,107.025475 182.415924,106.563980 
	C189.343155,96.892097 196.279755,87.225609 203.067703,77.456062 
	C205.174881,74.423309 206.851151,71.091156 208.724686,67.896072 
	C210.914001,64.924332 213.103302,61.952595 215.666138,58.554054 
	C216.729965,57.498577 217.420288,56.869900 218.490387,56.172989 
	C221.568893,57.105091 224.267639,58.105423 227.151047,59.163479 
	C227.335724,59.221203 227.692642,59.071609 227.692642,59.071609 
	C228.527634,59.819492 229.362625,60.567379 230.456299,61.557846 
	C230.714981,61.800426 230.851410,62.076172 230.959824,62.405411 
	C233.041824,63.793663 235.015411,64.852676 236.988998,65.911682 
	C239.421478,67.692894 241.853943,69.474106 244.635071,71.612320 
	C245.279480,72.337776 245.575241,72.706223 245.985504,73.412750 
	C249.306198,76.208328 247.360504,79.159805 246.695892,82.169182 
	C246.172302,82.998421 245.840912,83.628502 245.509506,84.258575 
	C245.362381,84.441879 245.215256,84.625175 244.655640,85.248245 
	C243.127304,87.086594 242.011459,88.485161 240.574265,90.004852 
	C239.757370,91.223724 239.261841,92.321465 238.766327,93.419212 
z"/>
<path fill="#51B2E6" opacity="1.000000" stroke="none" 
	d="
M277.566650,223.573059 
	C277.456146,223.970581 277.345673,224.368103 276.951355,225.069214 
	C276.393402,225.512360 276.159363,225.701523 275.575195,225.916885 
	C274.201233,225.773666 273.162903,225.817276 272.241913,225.509613 
	C257.415833,220.556793 242.628159,215.487762 227.776031,210.614960 
	C223.261719,209.133881 218.578964,208.166183 213.609375,206.935547 
	C212.518829,206.953781 211.792297,206.999847 210.745621,207.055389 
	C209.630600,206.551819 208.835724,206.038788 208.026367,205.173340 
	C207.656860,203.487152 207.629105,201.926254 206.888992,200.859665 
	C203.978546,196.665436 200.771301,192.678238 197.818588,188.511887 
	C195.922226,185.836060 194.278015,182.981506 192.254028,179.785889 
	C197.738602,178.064682 202.139694,176.790161 206.464706,175.295517 
	C210.609406,173.863174 214.675140,172.202332 219.492828,170.517914 
	C221.205109,170.244492 222.200134,170.095062 223.315308,170.184372 
	C223.836777,170.712402 224.197311,171.129623 224.645355,171.272537 
	C242.879395,177.089096 261.084564,183.000763 279.381073,188.614563 
	C286.302429,190.738190 287.048431,192.238312 284.539154,199.167023 
	C282.776672,204.033615 281.919189,209.227936 280.657593,214.275909 
	C280.530029,214.951736 280.402466,215.627548 279.968140,216.761871 
	C279.403412,217.804031 279.145447,218.387680 278.639862,219.008484 
	C278.158783,219.698090 277.925293,220.350525 277.576630,221.315674 
	C277.496490,222.276596 277.531555,222.924835 277.566650,223.573059 
z"/>
<path fill="#53B5EB" opacity="1.000000" stroke="none" 
	d="
M74.189445,161.851166 
	C73.693237,161.834427 73.197021,161.817688 72.306137,161.351868 
	C70.125473,160.150055 68.339493,159.397324 66.340622,158.604370 
	C65.846153,158.501099 65.564255,158.439529 64.963646,158.167725 
	C57.957520,155.853439 51.269783,153.750854 44.267536,151.619385 
	C43.326302,151.511993 42.699581,151.433517 41.901344,151.009247 
	C39.671867,150.005371 37.613907,149.347290 35.297287,148.658142 
	C34.696712,148.566055 34.354805,148.505020 33.904205,148.108215 
	C33.361591,146.145416 32.927670,144.518387 32.580345,142.531479 
	C32.746056,141.027725 32.825161,139.883835 32.904270,138.739944 
	C32.904270,138.739944 33.181831,138.512100 33.590904,138.109451 
	C34.515251,136.073715 35.030521,134.440643 35.686821,132.526184 
	C36.352703,130.250626 36.877548,128.256439 37.719883,126.142845 
	C38.294666,124.987358 38.551960,123.951271 39.020050,122.603569 
	C39.671692,120.543274 40.112537,118.794594 40.863144,116.981415 
	C42.801270,115.536865 44.429626,114.156815 46.057983,112.776764 
	C46.468384,112.871910 46.878788,112.967064 47.620110,113.524948 
	C51.574635,115.360855 55.147205,116.896484 58.837910,118.056122 
	C61.819286,118.992889 64.943085,119.476364 68.303604,120.185364 
	C69.003082,120.241905 69.402672,120.274017 69.948486,120.605850 
	C72.734283,121.555344 75.373856,122.205101 78.013428,122.854858 
	C78.441689,122.913208 78.869942,122.971558 79.675652,123.463249 
	C82.114838,124.662041 84.176582,125.427483 86.523697,126.290253 
	C87.206833,126.437622 87.604599,126.487679 88.226753,126.825409 
	C90.891068,128.095901 93.279984,129.240509 95.781151,130.029053 
	C101.654907,131.880875 108.232582,132.435364 111.244461,139.166870 
	C111.447800,139.621307 112.380554,139.749390 113.075958,140.363800 
	C115.481102,144.034866 117.508705,147.611694 120.156090,150.648193 
	C123.610489,154.610306 124.818512,158.085266 119.513046,161.725250 
	C118.478844,161.991165 117.783836,162.147552 116.914734,162.029938 
	C114.829247,162.739059 112.917854,163.722214 110.676186,164.800369 
	C109.892464,164.958282 109.439003,165.021179 108.882690,164.849396 
	C108.198242,164.748093 107.616653,164.881470 106.676666,165.051926 
	C104.393723,166.084747 102.469162,167.080475 100.138214,168.052399 
	C97.543518,168.046722 95.355202,168.064865 92.957802,167.765961 
	C90.717590,166.781097 88.686462,166.113251 86.328018,165.403107 
	C85.592766,165.472183 85.184822,165.583572 84.776871,165.694962 
	C83.789749,165.422867 82.802635,165.150787 81.546547,164.664581 
	C81.240662,164.283951 81.203735,164.117432 81.319221,163.706879 
	C79.044235,162.925629 76.616844,162.388397 74.189445,161.851166 
z"/>
<path fill="#C447F4" opacity="1.000000" stroke="none" 
	d="
M83.868820,213.669846 
	C83.475731,213.812683 83.082642,213.955521 82.169197,213.857574 
	C79.414978,214.537552 77.181114,215.458282 74.674042,216.414795 
	C74.040436,216.521667 73.680046,216.592758 72.947899,216.512207 
	C70.368271,217.385147 68.160400,218.409714 65.585533,219.510345 
	C64.478889,219.708618 63.739246,219.830795 62.739655,219.759186 
	C60.241886,220.601425 58.004074,221.637436 55.472343,222.733643 
	C54.785484,222.868729 54.392548,222.943649 53.732635,222.833435 
	C50.445831,223.283508 47.426010,223.918701 44.366795,224.562180 
	C43.146435,223.426239 41.833477,222.204102 40.460503,220.658691 
	C40.334339,219.902359 40.268192,219.469269 40.376644,218.748367 
	C40.054890,216.573410 39.619461,214.667740 39.051239,212.802505 
	C37.003563,206.080887 34.911137,199.372879 32.756222,192.402954 
	C35.718067,191.035797 37.866985,189.755096 40.189377,189.030151 
	C45.525639,187.364441 51.001816,186.141602 56.321552,184.429382 
	C68.193535,180.608215 79.963623,176.465790 91.872948,172.769073 
	C94.430954,171.975052 97.567253,171.883026 100.152290,172.558258 
	C107.446342,174.463486 114.603462,176.900833 121.791153,179.201584 
	C124.660950,180.120209 124.145386,181.955826 122.793770,183.857635 
	C118.414108,190.020142 114.221283,196.332504 109.518082,202.237976 
	C108.030663,204.105621 105.266861,205.115997 102.913017,206.103592 
	C96.615387,208.745880 90.223351,211.163162 83.868820,213.669846 
z"/>
<path fill="#3E7881" opacity="1.000000" stroke="none" 
	d="
M112.974060,140.029266 
	C112.380554,139.749390 111.447800,139.621307 111.244461,139.166870 
	C108.232582,132.435364 101.654907,131.880875 95.781151,130.029053 
	C93.279984,129.240509 90.891068,128.095901 88.228157,126.533043 
	C88.022690,125.758759 88.040207,125.564529 88.057724,125.370300 
	C89.102554,125.534859 90.147377,125.699409 91.821930,126.154106 
	C94.705299,127.196213 96.958961,127.948181 99.212616,128.700150 
	C99.604408,128.774750 99.996208,128.849350 100.917007,129.182373 
	C102.250717,129.283020 103.055420,129.125244 103.860130,128.967484 
	C103.656929,128.289368 103.453728,127.611244 103.250526,126.933128 
	C98.482506,120.861252 93.561920,114.901840 88.983116,108.690475 
	C82.527679,99.933350 76.320282,90.993256 70.016594,82.124443 
	C66.140755,76.671425 66.118484,76.179863 71.348389,72.166283 
	C78.922989,66.353310 86.552368,60.604614 94.315582,55.048122 
	C97.313576,52.902321 99.971046,52.776520 102.662697,56.569687 
	C112.776039,70.821732 123.296776,84.784584 133.652939,98.864578 
	C134.598434,100.150040 135.458755,101.498146 136.798187,103.152725 
	C138.159653,104.471024 139.081543,105.453758 139.973969,106.849716 
	C139.867798,107.810730 139.791107,108.358521 139.439056,108.864105 
	C138.499924,108.502960 137.836136,108.184021 137.001770,107.574371 
	C133.297852,102.714752 129.665726,98.218330 126.250641,93.562683 
	C117.655930,81.845901 109.231186,70.003174 100.505508,58.385780 
	C99.683212,57.290977 96.554520,56.489655 95.613846,57.148113 
	C87.410110,62.890614 79.405632,68.926155 71.517540,75.099030 
	C70.673767,75.759331 70.232407,78.345413 70.821083,79.200668 
	C75.407806,85.864494 80.308670,92.311424 85.081474,98.848007 
	C91.033073,106.998985 96.888351,115.221375 102.923508,123.309746 
	C105.259201,126.440063 107.480484,130.083282 110.649696,132.047424 
	C114.017044,134.134354 118.505943,134.339203 122.385162,135.706207 
	C124.076843,136.302353 125.469704,137.746460 126.816757,139.086121 
	C125.531738,139.337982 124.428230,139.309204 123.171219,139.012634 
	C121.714973,138.142990 120.412224,137.541092 118.821014,136.877213 
	C117.546883,136.724594 116.561218,136.633972 115.318336,136.415695 
	C110.911278,135.578842 112.255615,137.580978 113.343872,139.645432 
	C113.220421,139.773193 112.974060,140.029266 112.974060,140.029266 
z"/>
<path fill="#512330" opacity="1.000000" stroke="none" 
	d="
M140.003433,106.436485 
	C139.081543,105.453758 138.159653,104.471024 137.152008,103.200203 
	C136.794647,84.466995 136.475037,66.022400 136.272110,47.576530 
	C136.173660,38.627647 137.664749,37.241436 146.724426,37.232468 
	C155.873550,37.223408 165.023422,37.169132 174.171600,37.264408 
	C179.811966,37.323143 180.860596,38.398186 180.874695,44.071617 
	C180.922195,63.195015 180.892776,82.318604 182.001236,102.105446 
	C187.355331,94.679436 192.607834,87.177139 198.103119,79.857117 
	C201.208328,75.720795 204.712723,71.884155 208.381012,67.904297 
	C206.851151,71.091156 205.174881,74.423309 203.067703,77.456062 
	C196.279755,87.225609 189.343155,96.892097 182.415924,106.563980 
	C182.085388,107.025475 181.296021,107.158340 180.120941,107.223175 
	C179.352341,99.265648 179.113144,91.529961 179.029266,83.792587 
	C178.878738,69.905502 178.821503,56.017406 178.757782,41.801441 
	C178.134064,41.087517 177.477875,40.701881 176.421783,40.246723 
	C165.259476,40.000504 154.495987,39.670269 143.735367,39.746414 
	C140.745468,39.767578 138.788361,41.609184 140.397339,45.501732 
	C140.376495,66.244431 140.422607,86.570740 140.451981,106.681305 
	C140.435242,106.465569 140.003433,106.436485 140.003433,106.436485 
z"/>
<path fill="#434747" opacity="1.000000" stroke="none" 
	d="
M181.976944,234.761795 
	C181.603836,236.823318 180.917358,238.883270 180.906921,240.946625 
	C180.818665,258.406281 180.865494,275.866516 180.845825,293.326599 
	C180.838333,299.975677 180.115082,300.675262 173.319260,300.692871 
	C164.506149,300.715698 155.692902,300.711334 146.879745,300.696259 
	C138.724731,300.682343 137.163132,299.152954 137.161163,291.238617 
	C137.156799,273.612274 137.156677,255.985931 137.134827,237.547150 
	C137.374344,235.191330 137.633850,233.647949 137.901367,232.018906 
	C137.909393,231.933243 138.032883,231.818298 138.189545,231.741791 
	C138.493729,231.378738 138.641235,231.092209 139.003189,230.683807 
	C139.531967,230.460922 139.836365,230.335770 140.269882,230.621872 
	C140.408936,253.256104 140.408936,275.454926 140.408936,297.878021 
	C152.268036,297.878021 163.052292,297.850098 173.836258,297.893707 
	C177.444901,297.908295 178.677124,296.279144 178.649612,292.673676 
	C178.512711,274.724670 178.565247,256.773987 178.616913,238.824051 
	C178.623550,236.518799 179.013824,234.214676 179.357544,232.140991 
	C179.657242,232.426422 179.825745,232.480865 180.151611,232.736191 
	C180.864990,233.545303 181.420959,234.153549 181.976944,234.761795 
z"/>
<path fill="#451956" opacity="1.000000" stroke="none" 
	d="
M216.005417,128.383972 
	C221.636307,126.442207 227.258942,124.476013 232.901123,122.567650 
	C236.403931,121.382896 239.910629,120.197098 243.460663,119.167068 
	C251.914383,116.714256 260.404022,114.385056 268.853027,111.916496 
	C269.919678,111.604851 270.794830,110.688148 271.818695,110.170395 
	C274.861938,108.631454 276.877258,108.728363 278.113373,112.728645 
	C279.629852,117.636116 282.166168,122.218521 283.948547,127.056786 
	C285.458771,131.156433 286.574432,135.405777 287.766602,139.616653 
	C288.500366,142.208542 289.049896,144.852585 290.705017,148.732468 
	C270.357208,155.647110 250.009415,162.561752 229.231918,169.650085 
	C228.802231,169.823807 228.638428,169.769943 228.497971,169.590942 
	C227.638977,169.051773 226.920425,168.691589 226.406586,168.053192 
	C230.523621,166.473755 234.435944,165.172363 238.348373,163.871307 
	C250.902054,159.696609 263.394836,155.325546 276.027863,151.406616 
	C287.066528,147.982285 287.130737,148.208923 283.718994,137.715408 
	C283.463470,136.929520 283.441498,136.067581 283.184906,135.282150 
	C280.778931,127.916946 278.345428,120.560730 275.642273,112.359535 
	C265.281494,115.581161 255.391953,118.713203 245.466354,121.726471 
	C235.657471,124.704292 225.812180,127.562119 215.983002,130.208221 
	C215.990570,129.423874 215.997986,128.903931 216.005417,128.383972 
z"/>
<path fill="#61152D" opacity="1.000000" stroke="none" 
	d="
M137.893372,232.104584 
	C137.633850,233.647949 137.374344,235.191330 137.112152,237.037506 
	C132.140472,243.224304 126.916290,248.914948 122.271309,255.044510 
	C117.213951,261.718201 112.700050,268.803375 107.937088,275.700775 
	C106.071808,278.401947 104.240761,281.130798 102.271866,283.755310 
	C100.186836,286.534607 97.509285,286.671417 94.845306,284.748596 
	C86.572449,278.777283 78.297905,272.802582 70.188652,266.613464 
	C67.362633,264.456635 65.297760,261.816925 68.209877,257.886353 
	C77.996002,244.677750 87.660637,231.378082 97.249710,218.025589 
	C98.797043,215.870972 99.722099,213.269485 100.942810,210.130020 
	C102.906868,208.890106 104.862930,208.394745 106.825516,208.261749 
	C106.180763,209.962219 105.708412,211.429276 104.851074,212.618896 
	C93.822914,227.921265 82.839485,243.258087 71.590897,258.397583 
	C69.191139,261.627411 69.983109,263.137543 72.836525,265.166840 
	C79.718567,270.061218 86.392197,275.247498 93.217865,280.222778 
	C96.367271,282.518433 99.119797,283.229553 101.996002,279.167023 
	C110.205826,267.570984 118.710388,256.180145 127.260422,244.830215 
	C130.582153,240.420654 134.336243,236.336792 137.893372,232.104584 
z"/>
<path fill="#8430A3" opacity="1.000000" stroke="none" 
	d="
M106.818985,207.899384 
	C104.862930,208.394745 102.906868,208.890106 100.938690,209.693665 
	C100.195679,210.220139 99.464798,210.438431 98.171021,210.529587 
	C97.071892,210.625046 96.535652,210.847672 95.999413,211.070297 
	C95.633682,211.164429 95.267960,211.258560 94.257294,211.320709 
	C91.408226,212.242188 89.204102,213.195618 86.999977,214.149048 
	C86.192596,214.120392 85.385208,214.091721 84.223328,213.866455 
	C90.223351,211.163162 96.615387,208.745880 102.913017,206.103592 
	C105.266861,205.115997 108.030663,204.105621 109.518082,202.237976 
	C114.221283,196.332504 118.414108,190.020142 122.793770,183.857635 
	C124.145386,181.955826 124.660950,180.120209 121.791153,179.201584 
	C114.603462,176.900833 107.446342,174.463486 100.152290,172.558258 
	C97.567253,171.883026 94.430954,171.975052 91.872948,172.769073 
	C79.963623,176.465790 68.193535,180.608215 56.321552,184.429382 
	C51.001816,186.141602 45.525639,187.364441 40.189377,189.030151 
	C37.866985,189.755096 35.718067,191.035797 32.756222,192.402954 
	C34.911137,199.372879 37.003563,206.080887 39.051239,212.802505 
	C39.619461,214.667740 40.054890,216.573410 40.109100,218.506653 
	C38.531593,215.679932 37.497108,212.761780 36.232113,209.947220 
	C34.999531,207.204727 33.531132,204.568253 32.166267,201.885223 
	C31.717968,200.343765 31.441875,198.724716 30.789022,197.275406 
	C28.843449,192.956329 30.170099,189.505539 34.800777,188.009323 
	C46.406025,184.259552 58.065937,180.679276 69.682396,176.963715 
	C74.601929,175.390182 79.467484,173.647903 85.122200,172.037598 
	C88.666885,172.069504 91.515892,172.159683 92.301605,168.305634 
	C92.783287,168.185776 92.975090,168.134384 93.166893,168.083008 
	C95.355202,168.064865 97.543518,168.046722 100.221588,168.388306 
	C101.471581,169.456711 102.231812,170.165375 103.399704,170.890747 
	C106.542313,171.826065 109.264832,172.784027 112.015038,173.654510 
	C116.668663,175.127441 121.339806,176.545074 126.093346,178.324677 
	C124.771706,182.098587 123.360306,185.533768 121.796570,189.209747 
	C121.544609,189.816132 121.445000,190.181702 121.073326,190.684418 
	C120.149498,191.806900 119.497719,192.792221 118.721451,193.968170 
	C118.596947,194.158768 118.450035,194.589767 118.154343,194.716766 
	C115.806580,198.138290 113.754501,201.432816 111.376717,204.804260 
	C109.640335,205.887253 108.229660,206.893326 106.818985,207.899384 
z"/>
<path fill="#2F6864" opacity="1.000000" stroke="none" 
	d="
M182.044067,235.130096 
	C181.420959,234.153549 180.864990,233.545303 180.473740,232.564362 
	C181.461441,232.595490 182.584946,232.780334 183.062515,233.435806 
	C190.861496,244.139771 198.561340,254.915848 206.321365,265.648315 
	C210.644928,271.627991 215.038086,277.557343 219.725113,283.953156 
	C229.297455,276.988770 238.210785,270.721344 246.766693,263.999054 
	C247.816711,263.174072 247.842407,259.276001 246.840118,257.884277 
	C237.665527,245.145248 228.052368,232.722916 218.809982,220.031357 
	C215.855621,215.974472 213.626633,211.389328 211.065750,207.045898 
	C211.792297,206.999847 212.518829,206.953781 213.660400,207.248474 
	C214.684662,208.668808 215.293900,209.748413 215.903152,210.828018 
	C218.280319,214.723328 220.385147,218.819641 223.084396,222.477249 
	C232.106461,234.702545 241.336182,246.774689 250.498154,258.896576 
	C252.715210,261.829895 251.061203,264.062653 248.878433,265.671906 
	C239.912125,272.282349 230.853577,278.772461 221.675156,285.083160 
	C220.734085,285.730225 218.326263,285.412689 217.364288,284.617249 
	C215.362930,282.962433 213.725723,280.793091 212.199677,278.649506 
	C202.209412,264.616455 192.287231,250.534897 182.357941,236.458496 
	C182.179886,236.206070 182.189285,235.821381 182.044067,235.130096 
z"/>
<path fill="#1F465B" opacity="1.000000" stroke="none" 
	d="
M228.638428,169.769928 
	C228.638428,169.769943 228.802231,169.823807 228.868805,169.857742 
	C235.541336,172.143906 242.123413,174.469879 248.762039,176.621338 
	C252.893784,177.960358 257.116211,179.017715 261.288635,180.233475 
	C266.323151,181.700394 271.357513,183.169235 276.372559,184.700912 
	C278.837524,185.453781 281.203400,186.640686 283.711761,187.118164 
	C288.237427,187.979630 289.886993,190.708694 288.480713,195.078644 
	C287.039001,199.558807 286.098236,204.203201 284.587921,208.656906 
	C283.929382,210.598969 282.397522,212.244873 280.959930,214.150604 
	C281.919189,209.227936 282.776672,204.033615 284.539154,199.167023 
	C287.048431,192.238312 286.302429,190.738190 279.381073,188.614563 
	C261.084564,183.000763 242.879395,177.089096 224.645355,171.272537 
	C224.197311,171.129623 223.836777,170.712402 223.417358,170.210297 
	C225.145660,169.921646 226.892044,169.845795 228.638428,169.769928 
z"/>
<path fill="#2C636D" opacity="1.000000" stroke="none" 
	d="
M216.316040,210.884888 
	C215.293900,209.748413 214.684662,208.668808 214.024384,207.276276 
	C218.578964,208.166183 223.261719,209.133881 227.776031,210.614960 
	C242.628159,215.487762 257.415833,220.556793 272.241913,225.509613 
	C273.162903,225.817276 274.201233,225.773666 275.577423,226.211395 
	C275.947601,226.921082 275.925293,227.312851 275.903015,227.704636 
	C270.817444,226.691727 265.646179,225.985397 260.666473,224.593719 
	C253.272339,222.527344 246.026825,219.934158 238.693909,217.642532 
	C231.387756,215.359299 224.051804,213.171432 216.316040,210.884888 
z"/>
<path fill="#193445" opacity="1.000000" stroke="none" 
	d="
M37.402390,126.262253 
	C36.877548,128.256439 36.352703,130.250626 35.399223,132.633301 
	C34.270344,134.026855 33.570099,135.031921 32.869858,136.036972 
	C32.660015,134.944855 31.970127,133.659546 32.319138,132.792343 
	C34.403358,127.613556 36.727165,122.531197 39.451256,117.173386 
	C40.139076,116.968826 40.346230,117.007370 40.553383,117.045921 
	C40.112537,118.794594 39.671692,120.543274 38.694893,122.716583 
	C37.906757,124.181564 37.654575,125.221909 37.402390,126.262253 
z"/>
<path fill="#193445" opacity="1.000000" stroke="none" 
	d="
M42.072861,151.355026 
	C42.699581,151.433517 43.326302,151.511993 44.480782,151.872299 
	C50.674950,154.464478 56.341358,156.774841 62.007763,159.085190 
	C60.433449,159.208160 58.665115,159.856949 57.319374,159.360413 
	C52.269810,157.497253 47.358215,155.260147 42.169456,152.667877 
	C42.070618,151.913239 42.113571,151.640717 42.072861,151.355026 
z"/>
<path fill="#3E7881" opacity="1.000000" stroke="none" 
	d="
M68.003708,120.160934 
	C64.943085,119.476364 61.819286,118.992889 58.837910,118.056122 
	C55.147205,116.896484 51.574635,115.360855 47.915745,113.637741 
	C48.649620,113.157150 49.418777,113.026489 50.823719,113.181694 
	C53.725521,114.180161 55.991543,114.892754 58.257565,115.605347 
	C58.937832,115.706390 59.618099,115.807442 60.885036,116.181030 
	C63.649040,117.689362 65.826370,118.925148 68.003708,120.160934 
z"/>
<path fill="#3A7FA5" opacity="1.000000" stroke="none" 
	d="
M62.385349,159.076874 
	C56.341358,156.774841 50.674950,154.464478 44.795296,151.901215 
	C51.269783,153.750854 57.957520,155.853439 64.880005,158.434509 
	C65.070969,159.094360 65.027199,159.275696 64.983437,159.457047 
	C64.243271,159.327560 63.503101,159.198059 62.385349,159.076874 
z"/>
<path fill="#8430A3" opacity="1.000000" stroke="none" 
	d="
M40.520515,220.981964 
	C41.833477,222.204102 43.146435,223.426239 44.366795,224.562180 
	C47.426010,223.918701 50.445831,223.283508 53.701790,223.057068 
	C53.802063,223.735992 53.703205,224.019104 53.641354,224.315140 
	C53.485699,224.390656 53.330044,224.466187 52.578423,224.665344 
	C49.988445,225.581436 47.994431,226.373932 46.000416,227.166428 
	C45.556282,227.181396 45.112144,227.196381 44.137440,226.941528 
	C42.306488,225.675262 41.006111,224.678818 39.705727,223.682373 
	C39.593868,223.024628 39.482014,222.366882 39.645752,221.365601 
	C40.121067,221.008698 40.320789,220.995331 40.520515,220.981964 
z"/>
<path fill="#461958" opacity="1.000000" stroke="none" 
	d="
M40.460503,220.658691 
	C40.320789,220.995331 40.121067,221.008698 39.621437,221.032410 
	C36.881973,214.922409 34.442413,208.802094 32.084564,202.283493 
	C33.531132,204.568253 34.999531,207.204727 36.232113,209.947220 
	C37.497108,212.761780 38.531593,215.679932 39.934502,218.794464 
	C40.268192,219.469269 40.334339,219.902359 40.460503,220.658691 
z"/>
<path fill="#193445" opacity="1.000000" stroke="none" 
	d="
M68.303604,120.185364 
	C65.826370,118.925148 63.649040,117.689362 61.227325,116.214890 
	C61.115017,115.875618 61.285229,115.661110 61.373707,115.690735 
	C66.876671,117.533020 72.372948,119.395256 77.569275,121.651962 
	C74.779884,121.467552 72.291077,120.886841 69.802261,120.306122 
	C69.402672,120.274017 69.003082,120.241905 68.303604,120.185364 
z"/>
<path fill="#193445" opacity="1.000000" stroke="none" 
	d="
M92.011734,168.374115 
	C91.515892,172.159683 88.666885,172.069504 85.520226,172.002289 
	C88.367851,169.815659 84.930748,168.174881 84.773544,166.002411 
	C85.184822,165.583572 85.592766,165.472183 86.488327,165.698792 
	C88.654533,166.815903 90.333138,167.595001 92.011734,168.374115 
z"/>
<path fill="#461958" opacity="1.000000" stroke="none" 
	d="
M54.069939,224.440430 
	C53.703205,224.019104 53.802063,223.735992 53.968773,223.242188 
	C54.392548,222.943649 54.785484,222.868729 55.844372,222.826614 
	C58.673416,221.890594 60.836510,220.921799 62.999603,219.952972 
	C63.739246,219.830795 64.478889,219.708618 65.606964,219.813293 
	C66.000862,220.242249 66.006317,220.444336 66.011765,220.646408 
	C62.673515,223.420151 59.091675,225.478333 54.069939,224.440430 
z"/>
<path fill="#193445" opacity="1.000000" stroke="none" 
	d="
M39.641945,114.349854 
	C40.454540,112.694084 40.908638,110.543205 42.228271,109.587700 
	C42.906227,109.096809 45.128319,110.738503 46.165474,111.718460 
	C43.666206,112.796921 41.654079,113.573387 39.641945,114.349854 
z"/>
<path fill="#193445" opacity="1.000000" stroke="none" 
	d="
M34.012894,148.443985 
	C34.354805,148.505020 34.696712,148.566055 35.471596,148.908661 
	C37.398914,150.256973 38.893261,151.323715 40.387608,152.390472 
	C37.401798,153.475723 34.936275,152.900604 33.208126,149.617081 
	C33.508434,148.886978 33.760666,148.665482 34.012894,148.443985 
z"/>
<path fill="#641B43" opacity="1.000000" stroke="none" 
	d="
M215.805099,128.236603 
	C215.997986,128.903931 215.990570,129.423874 215.685913,130.440720 
	C213.969528,131.298935 212.550354,131.660248 211.131195,132.021576 
	C211.818420,130.369370 212.505661,128.717178 213.698944,127.183792 
	C214.515793,127.508087 214.826599,127.713577 215.137421,127.919067 
	C215.137421,127.919067 215.604782,128.089218 215.805099,128.236603 
z"/>
<path fill="#512330" opacity="1.000000" stroke="none" 
	d="
M240.895630,89.883728 
	C242.011459,88.485161 243.127304,87.086594 244.490814,85.559921 
	C243.299057,88.114990 241.859634,90.798180 240.296692,93.036835 
	C240.414001,91.689438 240.654816,90.786583 240.895630,89.883728 
z"/>
<path fill="#461958" opacity="1.000000" stroke="none" 
	d="
M73.319656,216.663849 
	C73.680046,216.592758 74.040436,216.521667 74.673187,216.631409 
	C75.048668,217.091644 75.070427,217.377258 75.010818,217.669083 
	C72.846954,218.694763 70.683083,219.720428 68.288849,220.338821 
	C69.812202,218.842300 71.565926,217.753082 73.319656,216.663849 
z"/>
<path fill="#8430A3" opacity="1.000000" stroke="none" 
	d="
M75.296776,217.639191 
	C75.070427,217.377258 75.048668,217.091644 74.946396,216.595627 
	C77.181114,215.458282 79.414978,214.537552 81.857819,213.902451 
	C82.066788,214.188080 82.331490,214.579041 81.911987,214.813690 
	C79.897629,215.823227 78.302765,216.598099 76.707901,217.372971 
	C76.332848,217.451752 75.957787,217.530518 75.296776,217.639191 
z"/>
<path fill="#512330" opacity="1.000000" stroke="none" 
	d="
M248.031921,72.967499 
	C252.734253,74.668907 253.238861,77.000137 249.345963,80.900482 
	C248.958359,80.971947 248.873276,80.902237 248.970505,80.553101 
	C248.679291,77.850716 248.290863,75.497482 247.934509,73.099838 
	C247.966568,73.055428 248.031921,72.967499 248.031921,72.967499 
z"/>
<path fill="#3E7881" opacity="1.000000" stroke="none" 
	d="
M39.561340,114.644661 
	C41.654079,113.573387 43.666206,112.796921 46.090893,112.017197 
	C46.503448,112.013954 46.431728,112.483551 46.244858,112.630157 
	C44.429626,114.156815 42.801270,115.536865 40.863148,116.981415 
	C40.346230,117.007370 40.139076,116.968826 39.628403,116.845062 
	C39.376831,116.153053 39.428783,115.546257 39.561340,114.644661 
z"/>
<path fill="#641B43" opacity="1.000000" stroke="none" 
	d="
M226.966370,59.105755 
	C224.267639,58.105423 221.568893,57.105091 218.558014,55.883217 
	C218.483841,55.122665 218.721817,54.583660 218.959808,54.044651 
	C218.959808,54.044651 218.991608,53.982887 219.370987,53.989311 
	C220.209961,53.955334 220.669556,53.914936 221.129150,53.874538 
	C222.594589,54.813290 224.060028,55.752041 225.891342,57.156872 
	C226.493591,58.117222 226.729980,58.611488 226.966370,59.105755 
z"/>
<path fill="#3E7881" opacity="1.000000" stroke="none" 
	d="
M69.948486,120.605850 
	C72.291077,120.886841 74.779884,121.467552 77.656342,122.009552 
	C78.043976,121.970840 78.204338,122.418869 78.108887,122.636864 
	C75.373856,122.205101 72.734283,121.555344 69.948486,120.605850 
z"/>
<path fill="#8430A3" opacity="1.000000" stroke="none" 
	d="
M72.947899,216.512222 
	C71.565926,217.753082 69.812202,218.842300 67.904137,220.199554 
	C67.365166,220.524246 66.980530,220.580917 66.303833,220.641998 
	C66.006317,220.444336 66.000862,220.242249 65.973969,219.737213 
	C68.160400,218.409714 70.368271,217.385147 72.947899,216.512222 
z"/>
<path fill="#3A7FA5" opacity="1.000000" stroke="none" 
	d="
M40.646614,152.429749 
	C38.893261,151.323715 37.398914,150.256973 35.730259,148.939697 
	C37.613907,149.347290 39.671867,150.005371 41.901344,151.009247 
	C42.113571,151.640717 42.070618,151.913239 41.945526,152.381668 
	C41.599907,152.550186 41.252762,152.509613 40.646614,152.429749 
z"/>
<path fill="#193445" opacity="1.000000" stroke="none" 
	d="
M81.166809,163.950897 
	C81.203735,164.117432 81.240662,164.283951 81.157242,164.676208 
	C78.337410,166.599197 75.957703,166.786972 74.674332,163.092377 
	C77.075584,163.121048 79.121201,163.535965 81.166809,163.950897 
z"/>
<path fill="#193445" opacity="1.000000" stroke="none" 
	d="
M32.611084,138.772156 
	C32.825161,139.883835 32.746056,141.027725 32.283356,142.575729 
	C31.415197,143.334473 30.930632,143.689102 30.446064,144.043716 
	C28.811052,141.565445 28.870710,141.398453 32.611084,138.772156 
z"/>
<path fill="#193445" opacity="1.000000" stroke="none" 
	d="
M58.117245,115.300919 
	C55.991543,114.892754 53.725521,114.180161 51.221611,113.209129 
	C54.029301,111.190163 56.208275,112.392014 58.117245,115.300919 
z"/>
<path fill="#193445" opacity="1.000000" stroke="none" 
	d="
M99.080246,128.392792 
	C96.958961,127.948181 94.705299,127.196213 92.218369,126.180557 
	C94.306030,126.639725 96.626953,127.362572 99.080246,128.392792 
z"/>
<path fill="#3A7FA5" opacity="1.000000" stroke="none" 
	d="
M30.358616,144.460785 
	C30.930632,143.689102 31.415197,143.334473 32.196754,142.935593 
	C32.927670,144.518387 33.361591,146.145416 33.904205,148.108215 
	C33.760666,148.665482 33.508434,148.886978 33.084435,149.296509 
	C32.032173,147.948975 31.151670,146.413422 30.358616,144.460785 
z"/>
<path fill="#461958" opacity="1.000000" stroke="none" 
	d="
M87.274910,214.340027 
	C89.204102,213.195618 91.408226,212.242188 93.982353,211.388763 
	C92.084854,212.502838 89.817345,213.516922 87.274910,214.340027 
z"/>
<path fill="#193445" opacity="1.000000" stroke="none" 
	d="
M65.018333,159.812500 
	C65.027199,159.275696 65.070969,159.094360 65.198395,158.646225 
	C65.564255,158.439529 65.846153,158.501099 66.472069,158.869720 
	C68.017303,160.203979 69.218208,161.232635 70.419113,162.261292 
	C68.007919,163.159363 65.950539,163.150497 65.018333,159.812500 
z"/>
<path fill="#461958" opacity="1.000000" stroke="none" 
	d="
M46.294785,227.357513 
	C47.994431,226.373932 49.988445,225.581436 52.345463,224.779694 
	C51.941231,228.499435 49.125881,227.717163 46.294785,227.357513 
z"/>
<path fill="#3E7881" opacity="1.000000" stroke="none" 
	d="
M86.238319,126.192932 
	C84.176582,125.427483 82.114838,124.662041 79.984589,123.563072 
	C80.677719,123.079239 81.439346,122.928925 82.753799,123.059929 
	C84.283852,124.291809 85.261086,125.242371 86.238319,126.192932 
z"/>
<path fill="#3A7FA5" opacity="1.000000" stroke="none" 
	d="
M81.319221,163.706879 
	C79.121201,163.535965 77.075584,163.121048 74.642212,162.725983 
	C74.254448,162.745834 74.044548,162.311432 74.116997,162.081299 
	C76.616844,162.388397 79.044235,162.925629 81.319221,163.706879 
z"/>
<path fill="#461958" opacity="1.000000" stroke="none" 
	d="
M77.074234,217.547012 
	C78.302765,216.598099 79.897629,215.823227 81.849129,215.041260 
	C82.219612,218.771347 79.601913,217.841537 77.074234,217.547012 
z"/>
<path fill="#193445" opacity="1.000000" stroke="none" 
	d="
M86.523697,126.290253 
	C85.261086,125.242371 84.283852,124.291809 83.150917,123.076492 
	C84.606758,123.483643 86.218300,124.155540 87.943779,125.098869 
	C88.040207,125.564529 88.022690,125.758759 88.003761,126.245361 
	C87.604599,126.487679 87.206833,126.437622 86.523697,126.290253 
z"/>
<path fill="#3A7FA5" opacity="1.000000" stroke="none" 
	d="
M70.666008,162.274963 
	C69.218208,161.232635 68.017303,160.203979 66.684952,158.909943 
	C68.339493,159.397324 70.125473,160.150055 71.952820,161.230133 
	C71.633743,161.801193 71.273323,162.044907 70.666008,162.274963 
z"/>
<path fill="#461958" opacity="1.000000" stroke="none" 
	d="
M39.539795,224.023941 
	C41.006111,224.678818 42.306488,225.675262 43.804642,226.920746 
	C41.250355,228.230865 39.358311,227.872467 39.539795,224.023941 
z"/>
<path fill="#641B43" opacity="1.000000" stroke="none" 
	d="
M236.932297,65.593613 
	C235.015411,64.852676 233.041824,63.793663 231.313416,62.379082 
	C232.028885,62.008919 232.499176,61.994324 232.969452,61.979729 
	C234.271500,63.078339 235.573547,64.176949 236.932297,65.593613 
z"/>
<path fill="#512330" opacity="1.000000" stroke="none" 
	d="
M232.056152,103.699425 
	C232.523010,102.309349 233.360687,100.971611 234.460938,99.517044 
	C233.957977,100.850731 233.192459,102.301247 232.056152,103.699425 
z"/>
<path fill="#512330" opacity="1.000000" stroke="none" 
	d="
M218.590393,54.054100 
	C218.721817,54.583660 218.483841,55.122665 218.178223,55.951447 
	C217.420288,56.869900 216.729965,57.498577 215.777222,58.218941 
	C216.416855,56.894936 217.318924,55.479244 218.590393,54.054100 
z"/>
<path fill="#3E7881" opacity="1.000000" stroke="none" 
	d="
M32.874054,136.328766 
	C33.570099,135.031921 34.270344,134.026855 35.258186,132.914673 
	C35.030521,134.440643 34.515251,136.073715 33.696957,137.964569 
	C33.222038,137.688400 33.050144,137.154480 32.874054,136.328766 
z"/>
<path fill="#1F465B" opacity="1.000000" stroke="none" 
	d="
M277.875977,223.595764 
	C277.531555,222.924835 277.496490,222.276596 277.928833,221.319397 
	C278.863708,221.013000 279.331207,221.015594 279.798676,221.018188 
	C279.260925,221.884949 278.723145,222.751709 277.875977,223.595764 
z"/>
<path fill="#512330" opacity="1.000000" stroke="none" 
	d="
M245.855789,84.390221 
	C245.840912,83.628502 246.172302,82.998421 246.962128,82.070244 
	C247.904800,81.482170 248.389038,81.192200 248.873276,80.902237 
	C248.873276,80.902237 248.958359,80.971947 249.000427,81.007797 
	C248.095688,82.203056 247.148880,83.362457 245.855789,84.390221 
z"/>
<path fill="#1F465B" opacity="1.000000" stroke="none" 
	d="
M278.887482,218.971329 
	C279.145447,218.387680 279.403412,217.804031 279.965454,217.106415 
	C280.314392,217.877228 280.359253,218.762024 280.011963,219.573669 
	C279.428040,219.251724 279.183929,219.075333 278.887482,218.971329 
z"/>
<path fill="#641B43" opacity="1.000000" stroke="none" 
	d="
M240.574265,90.004852 
	C240.654816,90.786583 240.414001,91.689438 240.035217,92.927902 
	C239.650681,93.342796 239.400894,93.410210 238.957092,93.442474 
	C239.261841,92.321465 239.757370,91.223724 240.574265,90.004852 
z"/>
<path fill="#193445" opacity="1.000000" stroke="none" 
	d="
M103.043472,127.164368 
	C103.453728,127.611244 103.656929,128.289368 103.860130,128.967484 
	C103.055420,129.125244 102.250717,129.283020 101.214035,129.218018 
	C101.600182,128.462021 102.218300,127.928810 103.043472,127.164368 
z"/>
<path fill="#641B43" opacity="1.000000" stroke="none" 
	d="
M228.909897,107.237152 
	C229.217545,106.260223 229.823685,105.215172 230.781769,104.211746 
	C230.491959,105.225258 229.850174,106.197151 228.909897,107.237152 
z"/>
<path fill="#512330" opacity="1.000000" stroke="none" 
	d="
M245.871002,73.074677 
	C245.575241,72.706223 245.279480,72.337776 244.976837,71.733139 
	C245.938232,71.785179 246.906479,72.073402 247.953339,72.664566 
	C248.031921,72.967499 247.966568,73.055428 247.597870,73.064331 
	C246.776459,73.073715 246.323730,73.074196 245.871002,73.074677 
z"/>
<path fill="#2C636D" opacity="1.000000" stroke="none" 
	d="
M278.639862,219.008484 
	C279.183929,219.075333 279.428040,219.251724 279.757446,219.682281 
	C279.887878,220.057175 279.880737,220.250290 279.836121,220.730789 
	C279.331207,221.015594 278.863708,221.013000 278.044037,221.006683 
	C277.925293,220.350525 278.158783,219.698090 278.639862,219.008484 
z"/>
<path fill="#512330" opacity="1.000000" stroke="none" 
	d="
M227.151047,59.163479 
	C226.729980,58.611488 226.493591,58.117222 226.137390,57.379242 
	C226.733978,57.681469 227.450409,58.227409 227.929749,58.922478 
	C227.692642,59.071609 227.335724,59.221203 227.151047,59.163479 
z"/>
<path fill="#1F465B" opacity="1.000000" stroke="none" 
	d="
M276.195221,227.585663 
	C275.925293,227.312851 275.947601,226.921082 275.967651,226.234802 
	C276.159363,225.701523 276.393402,225.512360 276.894165,225.373474 
	C276.909698,226.071655 276.698547,226.769180 276.195221,227.585663 
z"/>
<path fill="#512330" opacity="1.000000" stroke="none" 
	d="
M221.031708,53.644691 
	C220.669556,53.914936 220.209961,53.955334 219.405701,53.988655 
	C219.685455,53.792671 220.309860,53.603760 221.031708,53.644691 
z"/>
<path fill="#641B43" opacity="1.000000" stroke="none" 
	d="
M225.844727,111.223114 
	C225.921829,110.634537 226.261551,109.982841 226.927002,109.397354 
	C226.870926,110.029037 226.489136,110.594521 225.844727,111.223114 
z"/>
<path fill="#641B43" opacity="1.000000" stroke="none" 
	d="
M222.879120,115.251144 
	C222.938126,114.646179 223.263275,113.984947 223.918701,113.386452 
	C223.881058,114.031082 223.513153,114.612976 222.879120,115.251144 
z"/>
<path fill="#461958" opacity="1.000000" stroke="none" 
	d="
M96.182892,211.237244 
	C96.535652,210.847672 97.071892,210.625046 97.790421,210.560242 
	C97.437263,210.946762 96.901817,211.175476 96.182892,211.237244 
z"/>
<path fill="#512330" opacity="1.000000" stroke="none" 
	d="
M232.911163,61.710831 
	C232.499176,61.994324 232.028885,62.008919 231.205017,62.049843 
	C230.851410,62.076172 230.714981,61.800426 230.785858,61.664413 
	C231.522110,61.499577 232.187500,61.470753 232.911163,61.710831 
z"/>
<path fill="#512330" opacity="1.000000" stroke="none" 
	d="
M215.070633,127.620895 
	C214.826599,127.713577 214.515793,127.508087 214.025406,127.082413 
	C213.845840,126.862228 214.265289,126.694595 214.485092,126.742157 
	C214.804550,126.967392 214.904190,127.145065 215.070633,127.620895 
z"/>
<path fill="#C045EF" opacity="1.000000" stroke="none" 
	d="
M210.869934,132.139771 
	C212.550354,131.660248 213.969528,131.298935 215.685760,130.705109 
	C225.812180,127.562119 235.657471,124.704292 245.466354,121.726471 
	C255.391953,118.713203 265.281494,115.581161 275.642273,112.359535 
	C278.345428,120.560730 280.778931,127.916946 283.184906,135.282150 
	C283.441498,136.067581 283.463470,136.929520 283.718994,137.715408 
	C287.130737,148.208923 287.066528,147.982285 276.027863,151.406616 
	C263.394836,155.325546 250.902054,159.696609 238.348373,163.871307 
	C234.435944,165.172363 230.523621,166.473755 225.932327,168.056274 
	C222.693420,168.347137 220.133453,168.356705 217.339844,168.113373 
	C210.544296,165.616943 204.035645,163.197388 197.402344,161.189713 
	C192.725174,159.774094 192.035919,158.276978 194.813782,154.318237 
	C199.937042,147.017075 204.968201,139.651276 210.037735,132.312408 
	C210.228043,132.294266 210.418350,132.276108 210.869934,132.139771 
z"/>
<path fill="#C0BFC0" opacity="1.000000" stroke="none" 
	d="
M140.464294,45.085342 
	C138.788361,41.609184 140.745468,39.767578 143.735367,39.746414 
	C154.495987,39.670269 165.259476,40.000504 176.455078,40.538425 
	C177.500595,41.309677 178.112946,41.719704 178.725281,42.129730 
	C178.821503,56.017406 178.878738,69.905502 179.029266,83.792587 
	C179.113144,91.529961 179.352341,99.265648 179.801208,107.271248 
	C179.865646,108.632118 179.650436,109.723839 179.170670,111.296783 
	C177.887589,113.004250 176.869064,114.230484 175.519287,115.566010 
	C174.709457,116.387833 174.230865,117.100365 173.631226,117.949814 
	C173.510178,118.086723 173.459427,118.448677 173.173645,118.554016 
	C171.969284,119.459740 171.050720,120.260132 169.873596,121.047775 
	C169.442490,121.036354 169.269913,121.037697 169.120712,120.687393 
	C171.474197,115.353920 175.609909,110.444702 175.813675,105.377365 
	C176.587646,86.131310 176.016174,66.833664 176.131195,47.556404 
	C176.153763,43.771923 174.705597,42.673496 171.121170,42.755287 
	C162.982040,42.941002 154.830994,42.661484 146.695618,42.916592 
	C144.597900,42.982376 142.540314,44.327766 140.464294,45.085342 
z"/>
<path fill="#641B43" opacity="1.000000" stroke="none" 
	d="
M175.850525,115.456718 
	C176.869064,114.230484 177.887589,113.004250 179.191818,111.708832 
	C179.625534,119.273598 179.731277,126.908775 179.949768,134.540710 
	C180.008072,136.577026 180.411362,138.603470 180.710480,141.084106 
	C189.267838,138.213562 197.053299,135.563934 204.871475,133.014679 
	C206.263031,132.560928 207.790421,132.523758 209.646423,132.303314 
	C204.968201,139.651276 199.937042,147.017075 194.813782,154.318237 
	C192.035919,158.276978 192.725174,159.774094 197.402344,161.189713 
	C204.035645,163.197388 210.544296,165.616943 217.117783,168.273041 
	C216.181870,168.777374 215.234390,168.869156 213.910065,168.853897 
	C209.670670,167.584488 205.808090,166.422104 201.850906,165.013214 
	C200.843124,164.209061 199.929962,163.651443 198.590240,163.069290 
	C195.327484,162.084854 192.491272,161.124954 189.655060,160.165039 
	C190.815323,157.433868 191.590179,154.443390 193.216660,152.025879 
	C196.526337,147.106552 200.295654,142.496445 203.875580,137.758926 
	C203.561691,137.400497 203.247803,137.042053 202.933914,136.683624 
	C197.885437,138.267899 192.613342,139.363449 187.839417,141.547760 
	C180.133011,145.073837 176.306915,143.129684 176.261765,134.940277 
	C176.229706,129.125046 176.135193,123.310165 176.032028,117.157852 
	C175.947174,116.365967 175.898849,115.911339 175.850525,115.456718 
z"/>
<path fill="#641B43" opacity="1.000000" stroke="none" 
	d="
M245.985504,73.412758 
	C246.323730,73.074196 246.776459,73.073715 247.565811,73.108734 
	C248.290863,75.497482 248.679291,77.850716 248.970505,80.553093 
	C248.389038,81.192200 247.904800,81.482170 247.154343,81.871086 
	C247.360504,79.159805 249.306198,76.208328 245.985504,73.412758 
z"/>
<path fill="#6EE7DF" opacity="1.000000" stroke="none" 
	d="
M210.745621,207.055389 
	C213.626633,211.389328 215.855621,215.974472 218.809982,220.031357 
	C228.052368,232.722916 237.665527,245.145248 246.840118,257.884277 
	C247.842407,259.276001 247.816711,263.174072 246.766693,263.999054 
	C238.210785,270.721344 229.297455,276.988770 219.725113,283.953156 
	C215.038086,277.557343 210.644928,271.627991 206.321365,265.648315 
	C198.561340,254.915848 190.861496,244.139771 183.062515,233.435806 
	C182.584946,232.780334 181.461441,232.595490 180.316345,232.363495 
	C179.825745,232.480865 179.657242,232.426422 179.149612,231.883301 
	C178.549759,230.110641 178.289017,228.826645 178.246796,227.192368 
	C178.853439,225.116501 179.541245,223.396957 179.576324,221.664215 
	C179.707214,215.196060 179.743683,208.720520 179.577606,202.253845 
	C179.473602,198.205002 181.246307,197.218826 184.785355,198.394531 
	C186.038559,198.810867 187.229111,199.430923 188.496201,199.787735 
	C193.988800,201.334473 199.499100,202.818298 205.366455,204.513336 
	C206.500229,204.976349 207.270538,205.251053 208.040833,205.525757 
	C208.835724,206.038788 209.630600,206.551819 210.745621,207.055389 
z"/>
<path fill="#1F465B" opacity="1.000000" stroke="none" 
	d="
M208.026367,205.173340 
	C207.270538,205.251053 206.500229,204.976349 205.341034,204.219391 
	C204.181885,202.277496 203.411652,200.817856 202.471588,198.998596 
	C198.961639,193.981888 195.393799,189.468460 192.341705,184.629700 
	C188.887878,179.154007 189.095291,179.043503 195.046158,176.801208 
	C195.805603,176.515015 196.407120,175.770645 197.172195,175.544769 
	C202.456039,173.984802 207.763885,172.506134 213.175476,170.955322 
	C213.286942,170.909302 213.719269,170.734390 213.929718,170.563873 
	C214.269043,170.266876 214.397919,170.140381 214.847290,170.015640 
	C216.370377,170.225586 217.572983,170.433746 218.775574,170.641907 
	C214.675140,172.202332 210.609406,173.863174 206.464706,175.295517 
	C202.139694,176.790161 197.738602,178.064682 192.254028,179.785889 
	C194.278015,182.981506 195.922226,185.836060 197.818588,188.511887 
	C200.771301,192.678238 203.978546,196.665436 206.888992,200.859665 
	C207.629105,201.926254 207.656860,203.487152 208.026367,205.173340 
z"/>
<path fill="#273E5A" opacity="1.000000" stroke="none" 
	d="
M219.492828,170.517914 
	C217.572983,170.433746 216.370377,170.225586 214.786530,169.752625 
	C214.365814,169.312195 214.326355,169.136566 214.286911,168.960938 
	C215.234390,168.869156 216.181870,168.777374 217.351410,168.525925 
	C220.133453,168.356705 222.693420,168.347137 225.727631,168.334488 
	C226.920425,168.691589 227.638977,169.051773 228.497971,169.590942 
	C226.892044,169.845795 225.145660,169.921646 223.297226,169.971558 
	C222.200134,170.095062 221.205109,170.244492 219.492828,170.517914 
z"/>
<path fill="#010102" opacity="1.000000" stroke="none" 
	d="
M213.910065,168.853912 
	C214.326355,169.136566 214.365814,169.312195 214.466019,169.750854 
	C214.397919,170.140381 214.269043,170.266876 213.805939,170.533829 
	C213.291519,170.727783 213.155640,170.836807 213.064026,171.001343 
	C207.763885,172.506134 202.456039,173.984802 197.172195,175.544769 
	C196.407120,175.770645 195.805603,176.515015 195.046158,176.801208 
	C189.095291,179.043503 188.887878,179.154007 192.341705,184.629700 
	C195.393799,189.468460 198.961639,193.981888 202.033661,199.099625 
	C195.143692,202.282623 190.253815,196.679443 184.315292,195.726624 
	C177.165817,194.579529 176.222137,194.380508 176.156265,201.619553 
	C176.129044,204.611191 176.197739,207.604279 176.134750,210.594849 
	C176.078705,213.255966 175.901077,215.914505 175.777100,218.574188 
	C175.256378,218.724060 174.735657,218.873917 174.214935,219.023788 
	C171.729797,215.633652 169.344696,212.163681 166.725296,208.880661 
	C164.894669,206.586258 162.851730,204.431458 160.703339,202.429214 
	C158.780472,200.637177 157.369003,200.750290 155.641327,203.368469 
	C151.369202,209.842514 146.572952,215.970703 141.972046,221.754517 
	C141.934067,214.164688 142.164062,207.042511 141.723312,199.962097 
	C141.602646,198.023849 139.288101,194.532486 138.293793,194.640442 
	C134.633362,195.037949 131.116913,196.687714 127.522652,197.789215 
	C124.146118,198.823990 120.739716,199.761246 116.713524,200.924225 
	C117.550667,197.870483 118.000343,196.230133 118.450027,194.589767 
	C118.450035,194.589767 118.596947,194.158768 119.082916,193.971420 
	C120.161049,192.705139 120.753212,191.626221 121.345383,190.547287 
	C121.445000,190.181702 121.544609,189.816132 122.158524,189.207962 
	C124.643005,187.065567 127.047028,185.440399 128.469315,183.193741 
	C130.104797,180.610336 128.779663,178.431580 126.003586,177.985962 
	C121.339806,176.545074 116.668663,175.127441 112.015038,173.654510 
	C109.264832,172.784027 106.542313,171.826065 103.491707,170.565659 
	C104.817970,168.857574 106.459877,167.491287 108.322449,166.012482 
	C108.893265,165.737900 109.040741,165.465942 108.985550,165.084076 
	C109.439003,165.021179 109.892464,164.958282 110.761604,165.048386 
	C111.684753,165.282486 112.192215,165.363586 113.053116,165.583908 
	C114.742348,164.843811 116.078133,163.964478 117.424103,162.851776 
	C117.434288,162.618423 117.088829,162.303955 117.088829,162.303955 
	C117.783836,162.147552 118.478844,161.991165 119.829521,161.930511 
	C120.985474,162.072067 121.485756,162.117874 122.279953,162.358887 
	C124.444687,161.809067 126.544861,161.351898 128.052231,160.150787 
	C128.529526,159.770462 127.424088,157.403854 126.775116,155.741852 
	C124.796730,153.121078 123.086189,150.704681 121.478264,147.955994 
	C120.669617,146.844650 119.758347,146.065582 118.705017,145.044006 
	C118.474480,144.636398 118.386009,144.471252 118.405975,143.977570 
	C117.590904,142.936432 116.667404,142.223831 115.572853,141.231873 
	C115.300537,140.759048 115.199280,140.565567 115.279930,139.919647 
	C115.499748,138.492569 115.537651,137.517944 115.575546,136.543335 
	C116.561218,136.633972 117.546883,136.724594 118.895737,137.225906 
	C120.614189,138.184525 121.969460,138.732452 123.324730,139.280396 
	C124.428230,139.309204 125.531738,139.337982 127.143486,139.159576 
	C128.500717,139.200974 129.349686,139.449554 130.185944,140.075195 
	C133.246185,144.413849 136.221039,144.883392 140.008179,141.683105 
	C140.431564,133.246811 140.688019,125.105614 141.272125,117.086502 
	C143.198456,118.342430 144.797150,119.476273 146.538910,120.786255 
	C146.681992,120.962402 146.834732,121.389793 146.706390,121.734589 
	C147.256424,122.462677 147.934799,122.845970 148.845978,123.390823 
	C149.297791,123.856270 149.516815,124.160172 149.572571,124.828362 
	C149.665894,129.636169 152.130692,132.360336 156.285965,134.008698 
	C156.410202,134.152374 156.529892,134.512939 156.453247,134.874023 
	C157.100006,135.606369 157.823410,135.977646 158.674011,136.271545 
	C158.801193,136.194153 159.088821,136.116531 159.088821,136.116531 
	C159.088821,136.116531 159.386475,136.128677 159.750687,136.329468 
	C164.510254,136.671158 164.794617,133.910690 164.337921,130.494171 
	C164.375916,130.387955 164.572159,130.276627 164.933533,130.383026 
	C165.941620,129.460968 166.588303,128.432510 167.313721,127.208145 
	C167.392456,127.012222 167.695129,126.717720 168.063049,126.755356 
	C170.107117,124.011551 171.783279,121.230110 173.459427,118.448677 
	C173.459427,118.448677 173.510178,118.086723 174.024231,117.969910 
	C175.048386,117.733772 175.558472,117.614449 176.068558,117.495125 
	C176.135193,123.310165 176.229706,129.125046 176.261765,134.940277 
	C176.306915,143.129684 180.133011,145.073837 187.839417,141.547760 
	C192.613342,139.363449 197.885437,138.267899 202.933914,136.683624 
	C203.247803,137.042053 203.561691,137.400497 203.875580,137.758926 
	C200.295654,142.496445 196.526337,147.106552 193.216660,152.025879 
	C191.590179,154.443390 190.815323,157.433868 189.655060,160.165039 
	C192.491272,161.124954 195.327484,162.084854 198.703156,163.348007 
	C200.143600,164.187408 201.044571,164.723572 201.945526,165.259735 
	C205.808090,166.422104 209.670670,167.584488 213.910065,168.853912 
z"/>
<path fill="#3E7881" opacity="1.000000" stroke="none" 
	d="
M121.375648,148.288269 
	C123.086189,150.704681 124.796730,153.121078 126.724640,156.109406 
	C125.290024,158.508759 123.638031,160.336227 121.986038,162.163696 
	C121.485756,162.117874 120.985474,162.072067 120.168716,161.820999 
	C124.818512,158.085266 123.610489,154.610306 120.156090,150.648193 
	C117.508705,147.611694 115.481102,144.034866 113.075958,140.363800 
	C112.974060,140.029266 113.220421,139.773193 113.543228,139.763443 
	C114.276688,139.959824 114.687355,140.165970 115.098015,140.372101 
	C115.199280,140.565567 115.300537,140.759048 115.657341,141.495621 
	C116.707764,142.794510 117.502647,143.550293 118.297531,144.306091 
	C118.386009,144.471252 118.474480,144.636398 118.750717,145.337708 
	C119.750870,146.678665 120.563263,147.483475 121.375648,148.288269 
z"/>
<path fill="#1B384C" opacity="1.000000" stroke="none" 
	d="
M108.101791,166.124985 
	C106.459877,167.491287 104.817970,168.857574 103.084061,170.548950 
	C102.231812,170.165375 101.471581,169.456711 100.627975,168.412109 
	C102.469162,167.080475 104.393723,166.084747 106.831184,165.257156 
	C107.596649,165.658524 107.849220,165.891754 108.101791,166.124985 
z"/>
<path fill="#3E7881" opacity="1.000000" stroke="none" 
	d="
M116.914734,162.029938 
	C117.088829,162.303955 117.434288,162.618423 117.061348,162.832672 
	C115.358826,163.846176 114.029251,164.645432 112.699677,165.444687 
	C112.192215,165.363586 111.684753,165.282486 111.091873,164.953369 
	C112.917854,163.722214 114.829247,162.739059 116.914734,162.029938 
z"/>
<path fill="#3A7FA5" opacity="1.000000" stroke="none" 
	d="
M92.301605,168.305634 
	C90.333138,167.595001 88.654533,166.815903 86.815636,165.741089 
	C88.686462,166.113251 90.717590,166.781097 92.957802,167.765961 
	C92.975090,168.134384 92.783287,168.185776 92.301605,168.305634 
z"/>
<path fill="#3E7881" opacity="1.000000" stroke="none" 
	d="
M37.719879,126.142845 
	C37.654575,125.221909 37.906757,124.181564 38.484093,123.028206 
	C38.551960,123.951271 38.294666,124.987358 37.719879,126.142845 
z"/>
<path fill="#3E7881" opacity="1.000000" stroke="none" 
	d="
M108.322449,166.012482 
	C107.849220,165.891754 107.596649,165.658524 107.189575,165.220062 
	C107.616653,164.881470 108.198242,164.748093 108.882690,164.849396 
	C109.040741,165.465942 108.893265,165.737900 108.322449,166.012482 
z"/>
<path fill="#8430A3" opacity="1.000000" stroke="none" 
	d="
M62.739655,219.759201 
	C60.836510,220.921799 58.673416,221.890594 56.138290,222.766434 
	C58.004074,221.637436 60.241886,220.601425 62.739655,219.759201 
z"/>
<path fill="#6EECE3" opacity="1.000000" stroke="none" 
	d="
M130.198669,139.698151 
	C129.349686,139.449554 128.500717,139.200974 127.324997,138.878937 
	C125.469704,137.746460 124.076843,136.302353 122.385162,135.706207 
	C118.505943,134.339203 114.017044,134.134354 110.649696,132.047424 
	C107.480484,130.083282 105.259201,126.440063 102.923508,123.309746 
	C96.888351,115.221375 91.033073,106.998985 85.081474,98.848007 
	C80.308670,92.311424 75.407806,85.864494 70.821083,79.200668 
	C70.232407,78.345413 70.673767,75.759331 71.517540,75.099030 
	C79.405632,68.926155 87.410110,62.890614 95.613846,57.148113 
	C96.554520,56.489655 99.683212,57.290977 100.505508,58.385780 
	C109.231186,70.003174 117.655930,81.845901 126.250641,93.562683 
	C129.665726,98.218330 133.297852,102.714752 136.957474,108.052353 
	C137.326782,117.602638 137.676514,126.384201 137.678619,135.165848 
	C137.678894,136.272095 135.966232,137.523743 134.827911,138.433701 
	C134.083694,139.028610 132.943771,139.128464 131.670746,139.408722 
	C130.973160,139.477646 130.585922,139.587891 130.198669,139.698151 
z"/>
<path fill="#5ABCB5" opacity="1.000000" stroke="none" 
	d="
M131.981094,139.450073 
	C132.943771,139.128464 134.083694,139.028610 134.827911,138.433701 
	C135.966232,137.523743 137.678894,136.272095 137.678619,135.165848 
	C137.676514,126.384201 137.326782,117.602638 137.128052,108.343063 
	C137.836136,108.184021 138.499924,108.502960 139.545364,109.222565 
	C140.276581,110.814606 140.626129,112.005974 140.924088,113.577629 
	C140.896500,114.960083 140.920502,115.962257 140.944489,116.964424 
	C140.688019,125.105614 140.431564,133.246811 139.684143,141.582245 
	C136.789139,141.001007 134.385117,140.225540 131.981094,139.450073 
z"/>
<path fill="#C0BFC0" opacity="1.000000" stroke="none" 
	d="
M140.975677,113.197342 
	C140.626129,112.005974 140.276581,110.814606 139.820709,109.264771 
	C139.791107,108.358521 139.867798,107.810730 139.973969,106.849716 
	C140.003433,106.436485 140.435242,106.465569 140.780136,106.875504 
	C141.714493,109.244125 142.303940,111.202805 142.573944,113.163574 
	C141.828217,113.176216 141.401947,113.186783 140.975677,113.197342 
z"/>
<path fill="#2C3D3F" opacity="1.000000" stroke="none" 
	d="
M115.279930,139.919647 
	C114.687355,140.165970 114.276688,139.959824 113.666679,139.635681 
	C112.255615,137.580978 110.911278,135.578842 115.318336,136.415695 
	C115.537651,137.517944 115.499748,138.492569 115.279930,139.919647 
z"/>
<path fill="#2C3D3F" opacity="1.000000" stroke="none" 
	d="
M123.171219,139.012634 
	C121.969460,138.732452 120.614189,138.184525 119.184204,137.287903 
	C120.412224,137.541092 121.714973,138.142990 123.171219,139.012634 
z"/>
<path fill="#FEFEFE" opacity="1.000000" stroke="none" 
	d="
M142.893402,113.161491 
	C142.303940,111.202805 141.714493,109.244125 140.796875,107.091248 
	C140.422607,86.570740 140.376495,66.244431 140.397339,45.501732 
	C142.540314,44.327766 144.597900,42.982376 146.695618,42.916592 
	C154.830994,42.661484 162.982040,42.941002 171.121170,42.755287 
	C174.705597,42.673496 176.153763,43.771923 176.131195,47.556404 
	C176.016174,66.833664 176.587646,86.131310 175.813675,105.377365 
	C175.609909,110.444702 171.474197,115.353920 168.922928,120.958588 
	C166.528717,124.295410 164.210892,126.908386 162.225983,129.753632 
	C160.472198,132.267624 158.941452,132.927902 156.938385,130.142059 
	C156.172852,129.077362 155.339188,128.057114 154.482162,127.063545 
	C151.000336,123.027023 147.497391,119.008705 143.948395,114.715195 
	C143.560822,114.018295 143.227112,113.589890 142.893402,113.161491 
z"/>
<path fill="#3E7881" opacity="1.000000" stroke="none" 
	d="
M178.757782,41.801437 
	C178.112946,41.719704 177.500595,41.309677 176.854965,40.607948 
	C177.477875,40.701881 178.134064,41.087517 178.757782,41.801437 
z"/>
<path fill="#F9F9F9" opacity="1.000000" stroke="none" 
	d="
M178.028290,227.542633 
	C178.289017,228.826645 178.549759,230.110641 179.018433,231.652344 
	C179.013824,234.214676 178.623550,236.518799 178.616913,238.824051 
	C178.565247,256.773987 178.512711,274.724670 178.649612,292.673676 
	C178.677124,296.279144 177.444901,297.908295 173.836258,297.893707 
	C163.052292,297.850098 152.268036,297.878021 140.408936,297.878021 
	C140.408936,275.454926 140.408936,253.256104 140.474258,230.251465 
	C140.730118,228.336517 140.920670,227.227386 141.427734,226.016663 
	C147.308090,218.753189 152.871948,211.591309 159.657150,202.857300 
	C160.519913,204.393661 161.197617,206.032455 162.242493,207.388260 
	C167.451401,214.147232 172.756821,220.831848 178.028290,227.542633 
z"/>
<path fill="#DF335D" opacity="1.000000" stroke="none" 
	d="
M141.111221,226.118240 
	C140.920670,227.227386 140.730118,228.336517 140.335205,229.816071 
	C139.836365,230.335770 139.531967,230.460922 138.812408,230.645905 
	C138.282394,231.092697 138.157639,231.455505 138.032898,231.818298 
	C138.032883,231.818298 137.909393,231.933243 137.901398,232.018921 
	C134.336243,236.336792 130.582153,240.420654 127.260422,244.830215 
	C118.710388,256.180145 110.205826,267.570984 101.996002,279.167023 
	C99.119797,283.229553 96.367271,282.518433 93.217865,280.222778 
	C86.392197,275.247498 79.718567,270.061218 72.836525,265.166840 
	C69.983109,263.137543 69.191139,261.627411 71.590897,258.397583 
	C82.839485,243.258087 93.822914,227.921265 104.851074,212.618896 
	C105.708412,211.429276 106.180763,209.962219 106.825516,208.261749 
	C108.229660,206.893326 109.640335,205.887253 111.808884,204.840759 
	C119.026466,202.933975 125.588028,201.355820 131.916809,199.119034 
	C138.075012,196.942505 139.386810,197.529770 139.388580,203.849640 
	C139.389908,208.644348 139.268478,213.443451 139.448181,218.231354 
	C139.510757,219.898773 140.311539,221.538483 140.814789,223.557709 
	C140.939987,224.655792 141.025604,225.387024 141.111221,226.118240 
z"/>
<path fill="#61152D" opacity="1.000000" stroke="none" 
	d="
M138.189560,231.741791 
	C138.157639,231.455505 138.282394,231.092697 138.597931,230.767792 
	C138.641235,231.092209 138.493729,231.378738 138.189560,231.741791 
z"/>
<path fill="#450F24" opacity="1.000000" stroke="none" 
	d="
M140.775192,223.190857 
	C140.311539,221.538483 139.510757,219.898773 139.448181,218.231354 
	C139.268478,213.443451 139.389908,208.644348 139.388580,203.849640 
	C139.386810,197.529770 138.075012,196.942505 131.916809,199.119034 
	C125.588028,201.355820 119.026466,202.933975 112.134598,204.763855 
	C113.754501,201.432816 115.806580,198.138290 118.154343,194.716766 
	C118.000343,196.230133 117.550667,197.870483 116.713524,200.924225 
	C120.739716,199.761246 124.146118,198.823990 127.522652,197.789215 
	C131.116913,196.687714 134.633362,195.037949 138.293793,194.640442 
	C139.288101,194.532486 141.602646,198.023849 141.723312,199.962097 
	C142.164062,207.042511 141.934067,214.164688 141.804779,221.950867 
	C141.360260,222.817337 141.067734,223.004105 140.775192,223.190857 
z"/>
<path fill="#270E30" opacity="1.000000" stroke="none" 
	d="
M126.093346,178.324677 
	C128.779663,178.431580 130.104797,180.610336 128.469315,183.193741 
	C127.047028,185.440399 124.643005,187.065567 122.310867,188.967163 
	C123.360306,185.533768 124.771706,182.098587 126.093346,178.324677 
z"/>
<path fill="#450F24" opacity="1.000000" stroke="none" 
	d="
M121.073318,190.684418 
	C120.753212,191.626221 120.161049,192.705139 119.207413,193.780823 
	C119.497719,192.792221 120.149498,191.806900 121.073318,190.684418 
z"/>
<path fill="#A9A9A9" opacity="1.000000" stroke="none" 
	d="
M144.002243,114.983681 
	C147.497391,119.008705 151.000336,123.027023 154.482162,127.063545 
	C155.339188,128.057114 156.172852,129.077362 156.938385,130.142059 
	C158.941452,132.927902 160.472198,132.267624 162.225983,129.753632 
	C164.210892,126.908386 166.528717,124.295410 168.899551,121.310234 
	C169.269913,121.037697 169.442490,121.036354 169.863312,121.401901 
	C169.306091,123.418434 168.500610,125.068077 167.695129,126.717720 
	C167.695129,126.717720 167.392456,127.012222 167.050751,127.324509 
	C165.996735,128.516739 165.284454,129.396683 164.572159,130.276627 
	C164.572159,130.276627 164.375916,130.387955 164.070831,130.648346 
	C162.306000,132.648712 160.846237,134.388687 159.386475,136.128677 
	C159.386475,136.128677 159.088821,136.116531 159.088821,136.116531 
	C159.088821,136.116531 158.801193,136.194153 158.551270,136.018524 
	C157.710846,135.399567 157.120377,134.956253 156.529892,134.512939 
	C156.529892,134.512939 156.410202,134.152374 156.266815,133.663971 
	C153.994217,130.271744 151.865021,127.367905 149.735825,124.464066 
	C149.516815,124.160172 149.297791,123.856270 148.780411,123.129005 
	C147.932938,122.267021 147.383835,121.828407 146.834732,121.389793 
	C146.834732,121.389793 146.681992,120.962402 146.450256,120.446907 
	C145.479752,118.282166 144.740997,116.632927 144.002243,114.983681 
z"/>
<path fill="#2C3D3F" opacity="1.000000" stroke="none" 
	d="
M168.063049,126.755356 
	C168.500610,125.068077 169.306091,123.418434 170.121857,121.414658 
	C171.050720,120.260132 171.969284,119.459740 173.173645,118.554016 
	C171.783279,121.230110 170.107117,124.011551 168.063049,126.755356 
z"/>
<path fill="#2C3D3F" opacity="1.000000" stroke="none" 
	d="
M176.032028,117.157852 
	C175.558472,117.614449 175.048386,117.733772 174.145294,117.833008 
	C174.230865,117.100365 174.709457,116.387833 175.519302,115.566010 
	C175.898849,115.911339 175.947174,116.365967 176.032028,117.157852 
z"/>
<path fill="#273E5A" opacity="1.000000" stroke="none" 
	d="
M201.850906,165.013214 
	C201.044571,164.723572 200.143600,164.187408 199.129730,163.372543 
	C199.929962,163.651443 200.843124,164.209061 201.850906,165.013214 
z"/>
<path fill="#384E4D" opacity="1.000000" stroke="none" 
	d="
M140.814789,223.557709 
	C141.067734,223.004105 141.360260,222.817337 141.820068,222.434235 
	C146.572952,215.970703 151.369202,209.842514 155.641327,203.368469 
	C157.369003,200.750290 158.780472,200.637177 160.703339,202.429214 
	C162.851730,204.431458 164.894669,206.586258 166.725296,208.880661 
	C169.344696,212.163681 171.729797,215.633652 174.214935,219.023788 
	C174.735657,218.873917 175.256378,218.724060 175.777100,218.574188 
	C175.901077,215.914505 176.078705,213.255966 176.134750,210.594849 
	C176.197739,207.604279 176.129044,204.611191 176.156265,201.619553 
	C176.222137,194.380508 177.165817,194.579529 184.315292,195.726624 
	C190.253815,196.679443 195.143692,202.282623 202.203491,199.459259 
	C203.411652,200.817856 204.181885,202.277496 204.977539,204.031067 
	C199.499100,202.818298 193.988800,201.334473 188.496201,199.787735 
	C187.229111,199.430923 186.038559,198.810867 184.785355,198.394531 
	C181.246307,197.218826 179.473602,198.205002 179.577606,202.253845 
	C179.743683,208.720520 179.707214,215.196060 179.576324,221.664215 
	C179.541245,223.396957 178.853439,225.116501 178.246796,227.192368 
	C172.756821,220.831848 167.451401,214.147232 162.242493,207.388260 
	C161.197617,206.032455 160.519913,204.393661 159.657150,202.857300 
	C152.871948,211.591309 147.308090,218.753189 141.427734,226.016663 
	C141.025604,225.387024 140.939987,224.655792 140.814789,223.557709 
z"/>
<path fill="#273E5A" opacity="1.000000" stroke="none" 
	d="
M213.175476,170.955322 
	C213.155640,170.836807 213.291519,170.727783 213.595490,170.704346 
	C213.719269,170.734390 213.286942,170.909302 213.175476,170.955322 
z"/>
<path fill="#2C3D3F" opacity="1.000000" stroke="none" 
	d="
M131.670746,139.408722 
	C134.385117,140.225540 136.789139,141.001007 139.517212,141.877350 
	C136.221039,144.883392 133.246185,144.413849 130.185944,140.075195 
	C130.585922,139.587891 130.973160,139.477646 131.670746,139.408722 
z"/>
<path fill="#2C3D3F" opacity="1.000000" stroke="none" 
	d="
M149.572571,124.828362 
	C151.865021,127.367905 153.994217,130.271744 156.142578,133.520294 
	C152.130692,132.360336 149.665894,129.636169 149.572571,124.828362 
z"/>
<path fill="#1B384C" opacity="1.000000" stroke="none" 
	d="
M122.279953,162.358887 
	C123.638031,160.336227 125.290024,158.508759 126.992493,156.313766 
	C127.424088,157.403854 128.529526,159.770462 128.052231,160.150787 
	C126.544861,161.351898 124.444687,161.809067 122.279953,162.358887 
z"/>
<path fill="#2C3D3F" opacity="1.000000" stroke="none" 
	d="
M143.948395,114.715195 
	C144.740997,116.632927 145.479752,118.282166 146.307159,120.270760 
	C144.797150,119.476273 143.198456,118.342430 141.272125,117.086502 
	C140.920502,115.962257 140.896500,114.960083 140.924088,113.577637 
	C141.401947,113.186783 141.828217,113.176216 142.573944,113.163574 
	C143.227112,113.589890 143.560822,114.018295 143.948395,114.715195 
z"/>
<path fill="#2C3D3F" opacity="1.000000" stroke="none" 
	d="
M159.750671,136.329468 
	C160.846237,134.388687 162.306000,132.648712 164.032837,130.754562 
	C164.794617,133.910690 164.510254,136.671158 159.750671,136.329468 
z"/>
<path fill="#1B384C" opacity="1.000000" stroke="none" 
	d="
M113.053116,165.583908 
	C114.029251,164.645432 115.358826,163.846176 117.051163,163.066040 
	C116.078133,163.964478 114.742348,164.843811 113.053116,165.583908 
z"/>
<path fill="#2C3D3F" opacity="1.000000" stroke="none" 
	d="
M164.933533,130.383026 
	C165.284454,129.396683 165.996735,128.516739 166.972015,127.520432 
	C166.588303,128.432510 165.941620,129.460968 164.933533,130.383026 
z"/>
<path fill="#2C3D3F" opacity="1.000000" stroke="none" 
	d="
M121.478264,147.955994 
	C120.563263,147.483475 119.750870,146.678665 118.892776,145.580185 
	C119.758347,146.065582 120.669617,146.844650 121.478264,147.955994 
z"/>
<path fill="#2C3D3F" opacity="1.000000" stroke="none" 
	d="
M118.405975,143.977570 
	C117.502647,143.550293 116.707764,142.794510 115.828392,141.774963 
	C116.667404,142.223831 117.590904,142.936432 118.405975,143.977570 
z"/>
<path fill="#2C3D3F" opacity="1.000000" stroke="none" 
	d="
M146.706390,121.734589 
	C147.383835,121.828407 147.932938,122.267021 148.547607,122.967453 
	C147.934799,122.845970 147.256424,122.462677 146.706390,121.734589 
z"/>
<path fill="#2C3D3F" opacity="1.000000" stroke="none" 
	d="
M156.453247,134.874023 
	C157.120377,134.956253 157.710846,135.399567 158.424072,136.095901 
	C157.823410,135.977646 157.100006,135.606369 156.453247,134.874023 
z"/>
</svg>