<svg version="1.1" id="Layer_1" xmlns="http://www.w3.org/2000/svg" xmlns:xlink="http://www.w3.org/1999/xlink" x="0px" y="0px"
	 width="100%" viewBox="0 0 436 422" enable-background="new 0 0 436 422" xml:space="preserve">
<path fill="#121114" opacity="1.000000" stroke="none" 
	d="
M1.000000,160.000000 
	C1.000000,106.682060 1.000000,53.864120 1.000000,1.023089 
	C146.275589,1.023089 291.551178,1.023089 436.913391,1.023089 
	C436.913391,141.567902 436.913391,282.135895 436.913391,422.851929 
	C291.666779,422.851929 146.333405,422.851929 1.000000,422.851929 
	C1.000000,335.448883 1.000000,247.974442 1.000000,160.000000 
M297.566559,232.958878 
	C301.098999,231.698898 304.631439,230.438919 308.715973,229.036377 
	C309.072113,228.904709 309.428253,228.773041 310.451538,228.816879 
	C310.848816,228.137329 311.246094,227.457779 311.958374,226.171982 
	C313.367310,223.830307 314.776215,221.488632 316.787781,219.028442 
	C316.565887,218.307068 316.441650,217.015717 316.106049,216.958237 
	C314.155548,216.624237 312.155426,216.457230 310.171997,216.456238 
	C263.075012,216.433029 215.978027,216.438034 168.881042,216.438232 
	C127.775192,216.438416 86.669304,216.418091 45.563652,216.508682 
	C43.739643,216.512711 41.917862,217.528900 40.049118,218.890488 
	C40.160831,220.520203 40.272545,222.149933 40.045589,224.582703 
	C40.668957,226.750015 41.292324,228.917328 42.285309,231.775177 
	C44.184055,232.086929 46.082329,232.667053 47.981625,232.670425 
	C79.622971,232.726532 111.264458,232.721664 142.905899,232.707886 
	C194.197235,232.685532 245.488571,232.646759 297.566559,232.958878 
M85.370369,87.044952 
	C76.156792,96.045166 69.834473,106.971954 63.081604,119.264763 
	C66.332253,119.264763 68.262878,119.264763 70.193504,119.264763 
	C112.348557,119.264809 154.503845,119.183083 196.658554,119.301971 
	C215.620071,119.355453 234.502747,120.643608 252.997940,125.216064 
	C268.531921,129.056458 282.546753,135.947052 293.625153,147.683395 
	C303.185608,157.811630 312.332336,168.344376 321.380096,178.938995 
	C332.021362,191.399536 339.409851,205.048615 333.729156,222.151596 
	C330.282166,232.529541 324.614838,241.015594 313.917023,245.731110 
	C307.384644,248.610535 300.790070,249.154129 294.001343,249.158539 
	C214.190048,249.210464 134.378677,249.191589 54.567333,249.194077 
	C52.901596,249.194138 51.221596,249.095200 49.573456,249.274338 
	C47.066147,249.546875 45.763901,250.548004 46.371674,253.579010 
	C48.216263,262.778137 49.822041,264.237976 59.268898,264.238007 
	C167.739014,264.238525 276.209137,264.238525 384.679260,264.236511 
	C386.345154,264.236481 388.180878,264.644928 389.632050,264.079376 
	C391.281250,263.436676 393.480011,262.167908 393.892792,260.727875 
	C396.127594,252.931183 398.300629,245.071762 399.726044,237.096512 
	C403.933716,213.553848 403.083984,189.994812 397.879700,166.744522 
	C393.059753,145.211349 384.264038,125.177979 372.215668,106.664429 
	C369.923981,103.142937 366.793182,100.167519 363.785767,96.318100 
	C354.873596,87.185982 345.961456,78.053864 336.961456,68.254532 
	C334.447144,65.851967 332.270691,62.880852 329.357483,61.149479 
	C319.093689,55.049526 308.558197,49.408390 298.160675,43.531410 
	C281.350922,34.030041 262.916809,29.186098 244.093155,26.824972 
	C227.200027,24.705997 209.980698,24.558109 193.028229,27.472393 
	C164.362396,32.400318 137.961807,43.032402 114.148537,59.837257 
	C112.193542,61.216881 110.673149,63.212364 108.399323,65.305984 
	C100.952255,72.564438 93.505188,79.822899 85.370369,87.044952 
M125.500000,281.068909 
	C102.630295,281.068909 79.760590,281.068909 56.463718,281.068909 
	C82.786156,342.821869 158.947952,404.810516 262.228088,382.700317 
	C307.107788,373.092468 342.331207,347.497375 369.013245,310.380157 
	C375.301270,301.632904 381.643860,292.595093 384.606110,281.068939 
	C298.049774,281.068939 212.274887,281.068939 125.500000,281.068909 
M144.500000,199.017563 
	C201.045609,199.017563 257.591217,199.017563 314.136841,199.017563 
	C314.342743,198.579269 314.548615,198.140976 314.754517,197.702682 
	C311.782776,194.290466 308.844177,190.848663 305.833313,187.471313 
	C294.647186,174.923523 284.209045,161.756485 270.009705,152.089890 
	C256.675537,143.012314 241.996155,138.260269 226.343811,137.512009 
	C202.249619,136.360199 178.093094,136.350433 153.960846,136.196579 
	C123.474602,136.002213 92.985672,136.238571 62.499126,136.069504 
	C56.864170,136.038284 52.281780,135.858963 50.943970,143.199890 
	C49.769230,149.645996 47.167175,155.832016 44.940445,162.948105 
	C48.040226,162.948105 49.998741,162.948105 51.957253,162.948105 
	C94.439819,162.948105 136.922394,162.947952 179.404953,162.948822 
	C180.737671,162.948853 182.164566,162.666885 183.373749,163.056229 
	C184.369354,163.376785 185.808777,164.467987 185.844345,165.271118 
	C186.069534,170.355728 185.958649,175.455215 185.958649,180.982437 
	C183.258911,180.982437 181.293961,180.982437 179.329010,180.982437 
	C138.179230,180.982437 97.029449,180.982437 55.879673,180.982437 
	C40.440727,180.982437 40.435863,180.982330 40.102581,196.591339 
	C40.089378,197.209747 40.339531,197.833786 40.582306,199.017578 
	C74.960861,199.017578 109.230431,199.017578 144.500000,199.017563 
z"/>
<path fill="#FBFBFB" opacity="1.000000" stroke="none" 
	d="
M337.049286,68.921753 
	C345.961456,78.053864 354.873596,87.185982 363.847046,96.989052 
	C366.451050,101.332123 369.261414,104.849709 371.487061,108.704872 
	C378.617737,121.056221 385.323364,133.504898 390.101379,147.145386 
	C396.335724,164.943283 399.301178,183.107590 400.163818,201.721710 
	C401.040833,220.645020 397.928253,239.145142 393.267181,257.437134 
	C392.317383,261.164581 390.516968,262.375183 386.656006,262.371674 
	C276.491028,262.272308 166.325928,262.292786 56.160847,262.286530 
	C51.295452,262.286255 48.647438,259.693695 48.788029,254.683273 
	C48.937229,249.365845 53.226933,251.689636 55.587242,251.685715 
	C134.419220,251.554626 213.251617,251.644089 292.083344,251.451202 
	C298.459900,251.435608 305.015411,250.281647 311.167297,248.530746 
	C323.109985,245.131729 330.418274,236.292572 334.464630,225.064606 
	C338.623718,213.523865 338.681183,201.807404 331.577637,191.150848 
	C326.443817,183.449188 320.929199,175.977432 315.222626,168.686295 
	C301.833588,151.579407 286.946747,136.155090 266.310669,127.670685 
	C254.293091,122.729744 241.629700,120.162979 228.785049,119.271187 
	C211.877151,118.097298 194.907272,117.452492 177.958038,117.314018 
	C142.960876,117.028099 107.959755,117.232323 72.960266,117.215706 
	C71.074150,117.214813 69.188118,117.037285 65.610374,116.856491 
	C70.463257,109.732445 74.489288,103.793861 78.546562,97.876686 
	C81.025597,94.261230 83.552643,90.678688 86.058121,87.081360 
	C93.505188,79.822899 100.952255,72.564438 109.027817,65.157112 
	C113.090431,62.683208 116.369164,60.075672 119.987434,58.085434 
	C131.433395,51.789566 142.617538,44.787506 154.627411,39.804691 
	C170.053329,33.404587 186.360870,29.238182 203.165009,28.279221 
	C214.406113,27.637722 225.751617,27.284698 236.964386,28.054899 
	C253.167709,29.167900 268.930786,32.871914 284.100311,38.943993 
	C298.058258,44.531124 311.484650,51.067841 323.827454,59.714230 
	C328.226166,62.795609 332.641510,65.853264 337.049286,68.921753 
z"/>
<path fill="#FCFCFC" opacity="1.000000" stroke="none" 
	d="
M126.000000,281.068909 
	C212.274887,281.068939 298.049774,281.068939 384.606110,281.068939 
	C381.643860,292.595093 375.301270,301.632904 369.013245,310.380157 
	C342.331207,347.497375 307.107788,373.092468 262.228088,382.700317 
	C158.947952,404.810516 82.786156,342.821869 56.463718,281.068909 
	C79.760590,281.068909 102.630295,281.068909 126.000000,281.068909 
z"/>
<path fill="#F6F6F6" opacity="1.000000" stroke="none" 
	d="
M144.000000,199.017578 
	C109.230431,199.017578 74.960861,199.017578 40.582306,199.017578 
	C40.339531,197.833786 40.089378,197.209747 40.102581,196.591339 
	C40.435863,180.982330 40.440727,180.982437 55.879673,180.982437 
	C97.029449,180.982437 138.179230,180.982437 179.329010,180.982437 
	C181.293961,180.982437 183.258911,180.982437 185.958649,180.982437 
	C185.958649,175.455215 186.069534,170.355728 185.844345,165.271118 
	C185.808777,164.467987 184.369354,163.376785 183.373749,163.056229 
	C182.164566,162.666885 180.737671,162.948853 179.404953,162.948822 
	C136.922394,162.947952 94.439819,162.948105 51.957253,162.948105 
	C49.998741,162.948105 48.040226,162.948105 44.940445,162.948105 
	C47.167175,155.832016 49.769230,149.645996 50.943970,143.199890 
	C52.281780,135.858963 56.864170,136.038284 62.499126,136.069504 
	C92.985672,136.238571 123.474602,136.002213 153.960846,136.196579 
	C178.093094,136.350433 202.249619,136.360199 226.343811,137.512009 
	C241.996155,138.260269 256.675537,143.012314 270.009705,152.089890 
	C284.209045,161.756485 294.647186,174.923523 305.833313,187.471313 
	C308.844177,190.848663 311.782776,194.290466 314.754517,197.702682 
	C314.548615,198.140976 314.342743,198.579269 314.136841,199.017563 
	C257.591217,199.017563 201.045609,199.017563 144.000000,199.017578 
z"/>
<path fill="#EFEFEF" opacity="1.000000" stroke="none" 
	d="
M316.185150,219.146957 
	C314.776215,221.488632 313.367310,223.830307 311.503143,226.484375 
	C310.626740,227.411652 310.205566,228.026505 309.784393,228.641388 
	C309.428253,228.773041 309.072113,228.904709 308.051880,229.021332 
	C303.851837,230.209183 300.315887,231.412064 296.779907,232.614929 
	C245.488571,232.646759 194.197235,232.685532 142.905899,232.707886 
	C111.264458,232.721664 79.622971,232.726532 47.981625,232.670425 
	C46.082329,232.667053 44.184055,232.086929 42.199562,231.019348 
	C41.537296,228.102234 40.960777,225.940948 40.384258,223.779648 
	C40.272545,222.149933 40.160831,220.520203 40.531364,218.415741 
	C41.840775,217.861404 42.667934,217.712280 43.495117,217.712128 
	C132.887527,217.696518 222.279922,217.684906 311.672302,217.747696 
	C313.176910,217.748764 314.680878,218.660294 316.185150,219.146957 
z"/>
<path fill="#A2A2A3" opacity="1.000000" stroke="none" 
	d="
M85.714249,87.063156 
	C83.552643,90.678688 81.025597,94.261230 78.546562,97.876686 
	C74.489288,103.793861 70.463257,109.732445 65.610374,116.856491 
	C69.188118,117.037285 71.074150,117.214813 72.960266,117.215706 
	C107.959755,117.232323 142.960876,117.028099 177.958038,117.314018 
	C194.907272,117.452492 211.877151,118.097298 228.785049,119.271187 
	C241.629700,120.162979 254.293091,122.729744 266.310669,127.670685 
	C286.946747,136.155090 301.833588,151.579407 315.222626,168.686295 
	C320.929199,175.977432 326.443817,183.449188 331.577637,191.150848 
	C338.681183,201.807404 338.623718,213.523865 334.464630,225.064606 
	C330.418274,236.292572 323.109985,245.131729 311.167297,248.530746 
	C305.015411,250.281647 298.459900,251.435608 292.083344,251.451202 
	C213.251617,251.644089 134.419220,251.554626 55.587242,251.685715 
	C53.226933,251.689636 48.937229,249.365845 48.788029,254.683273 
	C48.647438,259.693695 51.295452,262.286255 56.160847,262.286530 
	C166.325928,262.292786 276.491028,262.272308 386.656006,262.371674 
	C390.516968,262.375183 392.317383,261.164581 393.267181,257.437134 
	C397.928253,239.145142 401.040833,220.645020 400.163818,201.721710 
	C399.301178,183.107590 396.335724,164.943283 390.101379,147.145386 
	C385.323364,133.504898 378.617737,121.056221 371.487061,108.704872 
	C369.261414,104.849709 366.451050,101.332123 363.978943,97.300079 
	C366.793182,100.167519 369.923981,103.142937 372.215668,106.664429 
	C384.264038,125.177979 393.059753,145.211349 397.879700,166.744522 
	C403.083984,189.994812 403.933716,213.553848 399.726044,237.096512 
	C398.300629,245.071762 396.127594,252.931183 393.892792,260.727875 
	C393.480011,262.167908 391.281250,263.436676 389.632050,264.079376 
	C388.180878,264.644928 386.345154,264.236481 384.679260,264.236511 
	C276.209137,264.238525 167.739014,264.238525 59.268898,264.238007 
	C49.822041,264.237976 48.216263,262.778137 46.371674,253.579010 
	C45.763901,250.548004 47.066147,249.546875 49.573456,249.274338 
	C51.221596,249.095200 52.901596,249.194138 54.567333,249.194077 
	C134.378677,249.191589 214.190048,249.210464 294.001343,249.158539 
	C300.790070,249.154129 307.384644,248.610535 313.917023,245.731110 
	C324.614838,241.015594 330.282166,232.529541 333.729156,222.151596 
	C339.409851,205.048615 332.021362,191.399536 321.380096,178.938995 
	C312.332336,168.344376 303.185608,157.811630 293.625153,147.683395 
	C282.546753,135.947052 268.531921,129.056458 252.997940,125.216064 
	C234.502747,120.643608 215.620071,119.355453 196.658554,119.301971 
	C154.503845,119.183083 112.348557,119.264809 70.193504,119.264763 
	C68.262878,119.264763 66.332253,119.264763 63.081604,119.264763 
	C69.834473,106.971954 76.156792,96.045166 85.714249,87.063156 
z"/>
<path fill="#8D8D8E" opacity="1.000000" stroke="none" 
	d="
M316.486450,219.087708 
	C314.680878,218.660294 313.176910,217.748764 311.672302,217.747696 
	C222.279922,217.684906 132.887527,217.696518 43.495117,217.712128 
	C42.667934,217.712280 41.840775,217.861404 40.554321,218.007294 
	C41.917862,217.528900 43.739643,216.512711 45.563652,216.508682 
	C86.669304,216.418091 127.775192,216.438416 168.881042,216.438232 
	C215.978027,216.438034 263.075012,216.433029 310.171997,216.456238 
	C312.155426,216.457230 314.155548,216.624237 316.106049,216.958237 
	C316.441650,217.015717 316.565887,218.307068 316.486450,219.087708 
z"/>
<path fill="#6B6A6D" opacity="1.000000" stroke="none" 
	d="
M337.005371,68.588142 
	C332.641510,65.853264 328.226166,62.795609 323.827454,59.714230 
	C311.484650,51.067841 298.058258,44.531124 284.100311,38.943993 
	C268.930786,32.871914 253.167709,29.167900 236.964386,28.054899 
	C225.751617,27.284698 214.406113,27.637722 203.165009,28.279221 
	C186.360870,29.238182 170.053329,33.404587 154.627411,39.804691 
	C142.617538,44.787506 131.433395,51.789566 119.987434,58.085434 
	C116.369164,60.075672 113.090431,62.683208 109.303566,64.964966 
	C110.673149,63.212364 112.193542,61.216881 114.148537,59.837257 
	C137.961807,43.032402 164.362396,32.400318 193.028229,27.472393 
	C209.980698,24.558109 227.200027,24.705997 244.093155,26.824972 
	C262.916809,29.186098 281.350922,34.030041 298.160675,43.531410 
	C308.558197,49.408390 319.093689,55.049526 329.357483,61.149479 
	C332.270691,62.880852 334.447144,65.851967 337.005371,68.588142 
z"/>
<path fill="#8D8D8E" opacity="1.000000" stroke="none" 
	d="
M297.173218,232.786911 
	C300.315887,231.412064 303.851837,230.209183 307.775848,229.092621 
	C304.631439,230.438919 301.098999,231.698898 297.173218,232.786911 
z"/>
<path fill="#8D8D8E" opacity="1.000000" stroke="none" 
	d="
M40.214924,224.181183 
	C40.960777,225.940948 41.537296,228.102234 42.014751,230.674088 
	C41.292324,228.917328 40.668957,226.750015 40.214924,224.181183 
z"/>
<path fill="#8D8D8E" opacity="1.000000" stroke="none" 
	d="
M310.117981,228.729126 
	C310.205566,228.026505 310.626740,227.411652 311.345642,226.787506 
	C311.246094,227.457779 310.848816,228.137329 310.117981,228.729126 
z"/>
</svg>